# UIU Round Cafe Table - Unity-ready OBJ
mtllib RoundCafeTable.mtl
o RoundWoodTop
usemtl WoodTop
v 0.000000 1.020000 -0.000000
v 0.370000 1.020000 -0.000000
v 0.370000 0.975000 0.000000
v 0.000000 0.975000 0.000000
v 0.368218 1.020000 0.036266
v 0.368218 0.975000 0.036266
v 0.362891 1.020000 0.072183
v 0.362891 0.975000 0.072183
v 0.354068 1.020000 0.107405
v 0.354068 0.975000 0.107405
v 0.341835 1.020000 0.141593
v 0.341835 0.975000 0.141593
v 0.326311 1.020000 0.174417
v 0.326311 0.975000 0.174417
v 0.307644 1.020000 0.205561
v 0.307644 0.975000 0.205561
v 0.286014 1.020000 0.234726
v 0.286014 0.975000 0.234726
v 0.261630 1.020000 0.261630
v 0.261630 0.975000 0.261630
v 0.234726 1.020000 0.286014
v 0.234726 0.975000 0.286014
v 0.205561 1.020000 0.307644
v 0.205561 0.975000 0.307644
v 0.174417 1.020000 0.326311
v 0.174417 0.975000 0.326311
v 0.141593 1.020000 0.341835
v 0.141593 0.975000 0.341835
v 0.107405 1.020000 0.354068
v 0.107405 0.975000 0.354068
v 0.072183 1.020000 0.362891
v 0.072183 0.975000 0.362891
v 0.036266 1.020000 0.368218
v 0.036266 0.975000 0.368218
v 0.000000 1.020000 0.370000
v 0.000000 0.975000 0.370000
v -0.036266 1.020000 0.368218
v -0.036266 0.975000 0.368218
v -0.072183 1.020000 0.362891
v -0.072183 0.975000 0.362891
v -0.107405 1.020000 0.354068
v -0.107405 0.975000 0.354068
v -0.141593 1.020000 0.341835
v -0.141593 0.975000 0.341835
v -0.174417 1.020000 0.326311
v -0.174417 0.975000 0.326311
v -0.205561 1.020000 0.307644
v -0.205561 0.975000 0.307644
v -0.234726 1.020000 0.286014
v -0.234726 0.975000 0.286014
v -0.261630 1.020000 0.261630
v -0.261630 0.975000 0.261630
v -0.286014 1.020000 0.234726
v -0.286014 0.975000 0.234726
v -0.307644 1.020000 0.205561
v -0.307644 0.975000 0.205561
v -0.326311 1.020000 0.174417
v -0.326311 0.975000 0.174417
v -0.341835 1.020000 0.141593
v -0.341835 0.975000 0.141593
v -0.354068 1.020000 0.107405
v -0.354068 0.975000 0.107405
v -0.362891 1.020000 0.072183
v -0.362891 0.975000 0.072183
v -0.368218 1.020000 0.036266
v -0.368218 0.975000 0.036266
v -0.370000 1.020000 0.000000
v -0.370000 0.975000 0.000000
v -0.368218 1.020000 -0.036266
v -0.368218 0.975000 -0.036266
v -0.362891 1.020000 -0.072183
v -0.362891 0.975000 -0.072183
v -0.354068 1.020000 -0.107405
v -0.354068 0.975000 -0.107405
v -0.341835 1.020000 -0.141593
v -0.341835 0.975000 -0.141593
v -0.326311 1.020000 -0.174417
v -0.326311 0.975000 -0.174417
v -0.307644 1.020000 -0.205561
v -0.307644 0.975000 -0.205561
v -0.286014 1.020000 -0.234726
v -0.286014 0.975000 -0.234726
v -0.261630 1.020000 -0.261630
v -0.261630 0.975000 -0.261630
v -0.234726 1.020000 -0.286014
v -0.234726 0.975000 -0.286014
v -0.205561 1.020000 -0.307644
v -0.205561 0.975000 -0.307644
v -0.174417 1.020000 -0.326311
v -0.174417 0.975000 -0.326311
v -0.141593 1.020000 -0.341835
v -0.141593 0.975000 -0.341835
v -0.107405 1.020000 -0.354068
v -0.107405 0.975000 -0.354068
v -0.072183 1.020000 -0.362891
v -0.072183 0.975000 -0.362891
v -0.036266 1.020000 -0.368218
v -0.036266 0.975000 -0.368218
v -0.000000 1.020000 -0.370000
v -0.000000 0.975000 -0.370000
v 0.036266 1.020000 -0.368218
v 0.036266 0.975000 -0.368218
v 0.072183 1.020000 -0.362891
v 0.072183 0.975000 -0.362891
v 0.107405 1.020000 -0.354068
v 0.107405 0.975000 -0.354068
v 0.141593 1.020000 -0.341835
v 0.141593 0.975000 -0.341835
v 0.174417 1.020000 -0.326311
v 0.174417 0.975000 -0.326311
v 0.205561 1.020000 -0.307644
v 0.205561 0.975000 -0.307644
v 0.234726 1.020000 -0.286014
v 0.234726 0.975000 -0.286014
v 0.261630 1.020000 -0.261630
v 0.261630 0.975000 -0.261630
v 0.286014 1.020000 -0.234726
v 0.286014 0.975000 -0.234726
v 0.307644 1.020000 -0.205561
v 0.307644 0.975000 -0.205561
v 0.326311 1.020000 -0.174417
v 0.326311 0.975000 -0.174417
v 0.341835 1.020000 -0.141593
v 0.341835 0.975000 -0.141593
v 0.354068 1.020000 -0.107405
v 0.354068 0.975000 -0.107405
v 0.362891 1.020000 -0.072183
v 0.362891 0.975000 -0.072183
v 0.368218 1.020000 -0.036266
v 0.368218 0.975000 -0.036266
vt 0.500000 0.500000
vt 1.000000 0.500000
vt 1.000000 0.500000
vt 0.500000 0.500000
vt 0.997592 0.549009
vt 0.997592 0.549009
vt 0.990393 0.597545
vt 0.990393 0.597545
vt 0.978470 0.645142
vt 0.978470 0.645142
vt 0.961940 0.691342
vt 0.961940 0.691342
vt 0.940961 0.735698
vt 0.940961 0.735698
vt 0.915735 0.777785
vt 0.915735 0.777785
vt 0.886505 0.817197
vt 0.886505 0.817197
vt 0.853553 0.853553
vt 0.853553 0.853553
vt 0.817197 0.886505
vt 0.817197 0.886505
vt 0.777785 0.915735
vt 0.777785 0.915735
vt 0.735698 0.940961
vt 0.735698 0.940961
vt 0.691342 0.961940
vt 0.691342 0.961940
vt 0.645142 0.978470
vt 0.645142 0.978470
vt 0.597545 0.990393
vt 0.597545 0.990393
vt 0.549009 0.997592
vt 0.549009 0.997592
vt 0.500000 1.000000
vt 0.500000 1.000000
vt 0.450991 0.997592
vt 0.450991 0.997592
vt 0.402455 0.990393
vt 0.402455 0.990393
vt 0.354858 0.978470
vt 0.354858 0.978470
vt 0.308658 0.961940
vt 0.308658 0.961940
vt 0.264302 0.940961
vt 0.264302 0.940961
vt 0.222215 0.915735
vt 0.222215 0.915735
vt 0.182803 0.886505
vt 0.182803 0.886505
vt 0.146447 0.853553
vt 0.146447 0.853553
vt 0.113495 0.817197
vt 0.113495 0.817197
vt 0.084265 0.777785
vt 0.084265 0.777785
vt 0.059039 0.735698
vt 0.059039 0.735698
vt 0.038060 0.691342
vt 0.038060 0.691342
vt 0.021530 0.645142
vt 0.021530 0.645142
vt 0.009607 0.597545
vt 0.009607 0.597545
vt 0.002408 0.549009
vt 0.002408 0.549009
vt 0.000000 0.500000
vt 0.000000 0.500000
vt 0.002408 0.450991
vt 0.002408 0.450991
vt 0.009607 0.402455
vt 0.009607 0.402455
vt 0.021530 0.354858
vt 0.021530 0.354858
vt 0.038060 0.308658
vt 0.038060 0.308658
vt 0.059039 0.264302
vt 0.059039 0.264302
vt 0.084265 0.222215
vt 0.084265 0.222215
vt 0.113495 0.182803
vt 0.113495 0.182803
vt 0.146447 0.146447
vt 0.146447 0.146447
vt 0.182803 0.113495
vt 0.182803 0.113495
vt 0.222215 0.084265
vt 0.222215 0.084265
vt 0.264302 0.059039
vt 0.264302 0.059039
vt 0.308658 0.038060
vt 0.308658 0.038060
vt 0.354858 0.021530
vt 0.354858 0.021530
vt 0.402455 0.009607
vt 0.402455 0.009607
vt 0.450991 0.002408
vt 0.450991 0.002408
vt 0.500000 0.000000
vt 0.500000 0.000000
vt 0.549009 0.002408
vt 0.549009 0.002408
vt 0.597545 0.009607
vt 0.597545 0.009607
vt 0.645142 0.021530
vt 0.645142 0.021530
vt 0.691342 0.038060
vt 0.691342 0.038060
vt 0.735698 0.059039
vt 0.735698 0.059039
vt 0.777785 0.084265
vt 0.777785 0.084265
vt 0.817197 0.113495
vt 0.817197 0.113495
vt 0.853553 0.146447
vt 0.853553 0.146447
vt 0.886505 0.182803
vt 0.886505 0.182803
vt 0.915735 0.222215
vt 0.915735 0.222215
vt 0.940961 0.264302
vt 0.940961 0.264302
vt 0.961940 0.308658
vt 0.961940 0.308658
vt 0.978470 0.354858
vt 0.978470 0.354858
vt 0.990393 0.402455
vt 0.990393 0.402455
vt 0.997592 0.450991
vt 0.997592 0.450991
vn 0.000000 1.000000 0.000000
vn 0.717821 0.696228 -0.000000
vn 0.717821 -0.696228 -0.000000
vn 0.000000 -1.000000 0.000000
vn 0.714364 0.696228 0.070359
vn 0.714364 -0.696228 0.070359
vn 0.704028 0.696228 0.140040
vn 0.704028 -0.696228 0.140040
vn 0.686912 0.696228 0.208372
vn 0.686912 -0.696228 0.208372
vn 0.663180 0.696228 0.274698
vn 0.663180 -0.696228 0.274698
vn 0.633062 0.696228 0.338378
vn 0.633062 -0.696228 0.338378
vn 0.596846 0.696228 0.398800
vn 0.596846 -0.696228 0.398800
vn 0.554883 0.696228 0.455381
vn 0.554883 -0.696228 0.455381
vn 0.507576 0.696228 0.507576
vn 0.507576 -0.696228 0.507576
vn 0.455381 0.696228 0.554883
vn 0.455381 -0.696228 0.554883
vn 0.398800 0.696228 0.596846
vn 0.398800 -0.696228 0.596846
vn 0.338378 0.696228 0.633062
vn 0.338378 -0.696228 0.633062
vn 0.274698 0.696228 0.663180
vn 0.274698 -0.696228 0.663180
vn 0.208372 0.696228 0.686912
vn 0.208372 -0.696228 0.686912
vn 0.140040 0.696228 0.704028
vn 0.140040 -0.696228 0.704028
vn 0.070359 0.696228 0.714364
vn 0.070359 -0.696228 0.714364
vn 0.000000 0.696228 0.717821
vn 0.000000 -0.696228 0.717821
vn -0.070359 0.696228 0.714364
vn -0.070359 -0.696228 0.714364
vn -0.140040 0.696228 0.704028
vn -0.140040 -0.696228 0.704028
vn -0.208372 0.696228 0.686912
vn -0.208372 -0.696228 0.686912
vn -0.274698 0.696228 0.663180
vn -0.274698 -0.696228 0.663180
vn -0.338378 0.696228 0.633062
vn -0.338378 -0.696228 0.633062
vn -0.398800 0.696228 0.596846
vn -0.398800 -0.696228 0.596846
vn -0.455381 0.696228 0.554883
vn -0.455381 -0.696228 0.554883
vn -0.507576 0.696228 0.507576
vn -0.507576 -0.696228 0.507576
vn -0.554883 0.696228 0.455381
vn -0.554883 -0.696228 0.455381
vn -0.596846 0.696228 0.398800
vn -0.596846 -0.696228 0.398800
vn -0.633062 0.696228 0.338378
vn -0.633062 -0.696228 0.338378
vn -0.663180 0.696228 0.274698
vn -0.663180 -0.696228 0.274698
vn -0.686912 0.696228 0.208372
vn -0.686912 -0.696228 0.208372
vn -0.704028 0.696228 0.140040
vn -0.704028 -0.696228 0.140040
vn -0.714364 0.696228 0.070359
vn -0.714364 -0.696228 0.070359
vn -0.717821 0.696228 0.000000
vn -0.717821 -0.696228 0.000000
vn -0.714364 0.696228 -0.070359
vn -0.714364 -0.696228 -0.070359
vn -0.704028 0.696228 -0.140040
vn -0.704028 -0.696228 -0.140040
vn -0.686912 0.696228 -0.208372
vn -0.686912 -0.696228 -0.208372
vn -0.663180 0.696228 -0.274698
vn -0.663180 -0.696228 -0.274698
vn -0.633062 0.696228 -0.338378
vn -0.633062 -0.696228 -0.338378
vn -0.596846 0.696228 -0.398800
vn -0.596846 -0.696228 -0.398800
vn -0.554883 0.696228 -0.455381
vn -0.554883 -0.696228 -0.455381
vn -0.507576 0.696228 -0.507576
vn -0.507576 -0.696228 -0.507576
vn -0.455381 0.696228 -0.554883
vn -0.455381 -0.696228 -0.554883
vn -0.398800 0.696228 -0.596846
vn -0.398800 -0.696228 -0.596846
vn -0.338378 0.696228 -0.633062
vn -0.338378 -0.696228 -0.633062
vn -0.274698 0.696228 -0.663180
vn -0.274698 -0.696228 -0.663180
vn -0.208372 0.696228 -0.686912
vn -0.208372 -0.696228 -0.686912
vn -0.140040 0.696228 -0.704028
vn -0.140040 -0.696228 -0.704028
vn -0.070359 0.696228 -0.714364
vn -0.070359 -0.696228 -0.714364
vn 0.000000 0.696228 -0.717821
vn -0.000000 -0.696228 -0.717821
vn 0.070359 0.696228 -0.714364
vn 0.070359 -0.696228 -0.714364
vn 0.140040 0.696228 -0.704028
vn 0.140040 -0.696228 -0.704028
vn 0.208372 0.696228 -0.686912
vn 0.208372 -0.696228 -0.686912
vn 0.274698 0.696228 -0.663180
vn 0.274698 -0.696228 -0.663180
vn 0.338378 0.696228 -0.633062
vn 0.338378 -0.696228 -0.633062
vn 0.398800 0.696228 -0.596846
vn 0.398800 -0.696228 -0.596846
vn 0.455381 0.696228 -0.554883
vn 0.455381 -0.696228 -0.554883
vn 0.507576 0.696228 -0.507576
vn 0.507576 -0.696228 -0.507576
vn 0.554883 0.696228 -0.455381
vn 0.554883 -0.696228 -0.455381
vn 0.596846 0.696228 -0.398800
vn 0.596846 -0.696228 -0.398800
vn 0.633062 0.696228 -0.338378
vn 0.633062 -0.696228 -0.338378
vn 0.663180 0.696228 -0.274698
vn 0.663180 -0.696228 -0.274698
vn 0.686912 0.696228 -0.208372
vn 0.686912 -0.696228 -0.208372
vn 0.704028 0.696228 -0.140040
vn 0.704028 -0.696228 -0.140040
vn 0.714364 0.696228 -0.070359
vn 0.714364 -0.696228 -0.070359
f 2/2/2 1/1/1 5/5/5
f 2/2/2 5/5/5 3/3/3
f 3/3/3 5/5/5 6/6/6
f 3/3/3 6/6/6 4/4/4
f 5/5/5 1/1/1 7/7/7
f 5/5/5 7/7/7 6/6/6
f 6/6/6 7/7/7 8/8/8
f 6/6/6 8/8/8 4/4/4
f 7/7/7 1/1/1 9/9/9
f 7/7/7 9/9/9 8/8/8
f 8/8/8 9/9/9 10/10/10
f 8/8/8 10/10/10 4/4/4
f 9/9/9 1/1/1 11/11/11
f 9/9/9 11/11/11 10/10/10
f 10/10/10 11/11/11 12/12/12
f 10/10/10 12/12/12 4/4/4
f 11/11/11 1/1/1 13/13/13
f 11/11/11 13/13/13 12/12/12
f 12/12/12 13/13/13 14/14/14
f 12/12/12 14/14/14 4/4/4
f 13/13/13 1/1/1 15/15/15
f 13/13/13 15/15/15 14/14/14
f 14/14/14 15/15/15 16/16/16
f 14/14/14 16/16/16 4/4/4
f 15/15/15 1/1/1 17/17/17
f 15/15/15 17/17/17 16/16/16
f 16/16/16 17/17/17 18/18/18
f 16/16/16 18/18/18 4/4/4
f 17/17/17 1/1/1 19/19/19
f 17/17/17 19/19/19 18/18/18
f 18/18/18 19/19/19 20/20/20
f 18/18/18 20/20/20 4/4/4
f 19/19/19 1/1/1 21/21/21
f 19/19/19 21/21/21 20/20/20
f 20/20/20 21/21/21 22/22/22
f 20/20/20 22/22/22 4/4/4
f 21/21/21 1/1/1 23/23/23
f 21/21/21 23/23/23 22/22/22
f 22/22/22 23/23/23 24/24/24
f 22/22/22 24/24/24 4/4/4
f 23/23/23 1/1/1 25/25/25
f 23/23/23 25/25/25 24/24/24
f 24/24/24 25/25/25 26/26/26
f 24/24/24 26/26/26 4/4/4
f 25/25/25 1/1/1 27/27/27
f 25/25/25 27/27/27 26/26/26
f 26/26/26 27/27/27 28/28/28
f 26/26/26 28/28/28 4/4/4
f 27/27/27 1/1/1 29/29/29
f 27/27/27 29/29/29 28/28/28
f 28/28/28 29/29/29 30/30/30
f 28/28/28 30/30/30 4/4/4
f 29/29/29 1/1/1 31/31/31
f 29/29/29 31/31/31 30/30/30
f 30/30/30 31/31/31 32/32/32
f 30/30/30 32/32/32 4/4/4
f 31/31/31 1/1/1 33/33/33
f 31/31/31 33/33/33 32/32/32
f 32/32/32 33/33/33 34/34/34
f 32/32/32 34/34/34 4/4/4
f 33/33/33 1/1/1 35/35/35
f 33/33/33 35/35/35 34/34/34
f 34/34/34 35/35/35 36/36/36
f 34/34/34 36/36/36 4/4/4
f 35/35/35 1/1/1 37/37/37
f 35/35/35 37/37/37 36/36/36
f 36/36/36 37/37/37 38/38/38
f 36/36/36 38/38/38 4/4/4
f 37/37/37 1/1/1 39/39/39
f 37/37/37 39/39/39 38/38/38
f 38/38/38 39/39/39 40/40/40
f 38/38/38 40/40/40 4/4/4
f 39/39/39 1/1/1 41/41/41
f 39/39/39 41/41/41 40/40/40
f 40/40/40 41/41/41 42/42/42
f 40/40/40 42/42/42 4/4/4
f 41/41/41 1/1/1 43/43/43
f 41/41/41 43/43/43 42/42/42
f 42/42/42 43/43/43 44/44/44
f 42/42/42 44/44/44 4/4/4
f 43/43/43 1/1/1 45/45/45
f 43/43/43 45/45/45 44/44/44
f 44/44/44 45/45/45 46/46/46
f 44/44/44 46/46/46 4/4/4
f 45/45/45 1/1/1 47/47/47
f 45/45/45 47/47/47 46/46/46
f 46/46/46 47/47/47 48/48/48
f 46/46/46 48/48/48 4/4/4
f 47/47/47 1/1/1 49/49/49
f 47/47/47 49/49/49 48/48/48
f 48/48/48 49/49/49 50/50/50
f 48/48/48 50/50/50 4/4/4
f 49/49/49 1/1/1 51/51/51
f 49/49/49 51/51/51 50/50/50
f 50/50/50 51/51/51 52/52/52
f 50/50/50 52/52/52 4/4/4
f 51/51/51 1/1/1 53/53/53
f 51/51/51 53/53/53 52/52/52
f 52/52/52 53/53/53 54/54/54
f 52/52/52 54/54/54 4/4/4
f 53/53/53 1/1/1 55/55/55
f 53/53/53 55/55/55 54/54/54
f 54/54/54 55/55/55 56/56/56
f 54/54/54 56/56/56 4/4/4
f 55/55/55 1/1/1 57/57/57
f 55/55/55 57/57/57 56/56/56
f 56/56/56 57/57/57 58/58/58
f 56/56/56 58/58/58 4/4/4
f 57/57/57 1/1/1 59/59/59
f 57/57/57 59/59/59 58/58/58
f 58/58/58 59/59/59 60/60/60
f 58/58/58 60/60/60 4/4/4
f 59/59/59 1/1/1 61/61/61
f 59/59/59 61/61/61 60/60/60
f 60/60/60 61/61/61 62/62/62
f 60/60/60 62/62/62 4/4/4
f 61/61/61 1/1/1 63/63/63
f 61/61/61 63/63/63 62/62/62
f 62/62/62 63/63/63 64/64/64
f 62/62/62 64/64/64 4/4/4
f 63/63/63 1/1/1 65/65/65
f 63/63/63 65/65/65 64/64/64
f 64/64/64 65/65/65 66/66/66
f 64/64/64 66/66/66 4/4/4
f 65/65/65 1/1/1 67/67/67
f 65/65/65 67/67/67 66/66/66
f 66/66/66 67/67/67 68/68/68
f 66/66/66 68/68/68 4/4/4
f 67/67/67 1/1/1 69/69/69
f 67/67/67 69/69/69 68/68/68
f 68/68/68 69/69/69 70/70/70
f 68/68/68 70/70/70 4/4/4
f 69/69/69 1/1/1 71/71/71
f 69/69/69 71/71/71 70/70/70
f 70/70/70 71/71/71 72/72/72
f 70/70/70 72/72/72 4/4/4
f 71/71/71 1/1/1 73/73/73
f 71/71/71 73/73/73 72/72/72
f 72/72/72 73/73/73 74/74/74
f 72/72/72 74/74/74 4/4/4
f 73/73/73 1/1/1 75/75/75
f 73/73/73 75/75/75 74/74/74
f 74/74/74 75/75/75 76/76/76
f 74/74/74 76/76/76 4/4/4
f 75/75/75 1/1/1 77/77/77
f 75/75/75 77/77/77 76/76/76
f 76/76/76 77/77/77 78/78/78
f 76/76/76 78/78/78 4/4/4
f 77/77/77 1/1/1 79/79/79
f 77/77/77 79/79/79 78/78/78
f 78/78/78 79/79/79 80/80/80
f 78/78/78 80/80/80 4/4/4
f 79/79/79 1/1/1 81/81/81
f 79/79/79 81/81/81 80/80/80
f 80/80/80 81/81/81 82/82/82
f 80/80/80 82/82/82 4/4/4
f 81/81/81 1/1/1 83/83/83
f 81/81/81 83/83/83 82/82/82
f 82/82/82 83/83/83 84/84/84
f 82/82/82 84/84/84 4/4/4
f 83/83/83 1/1/1 85/85/85
f 83/83/83 85/85/85 84/84/84
f 84/84/84 85/85/85 86/86/86
f 84/84/84 86/86/86 4/4/4
f 85/85/85 1/1/1 87/87/87
f 85/85/85 87/87/87 86/86/86
f 86/86/86 87/87/87 88/88/88
f 86/86/86 88/88/88 4/4/4
f 87/87/87 1/1/1 89/89/89
f 87/87/87 89/89/89 88/88/88
f 88/88/88 89/89/89 90/90/90
f 88/88/88 90/90/90 4/4/4
f 89/89/89 1/1/1 91/91/91
f 89/89/89 91/91/91 90/90/90
f 90/90/90 91/91/91 92/92/92
f 90/90/90 92/92/92 4/4/4
f 91/91/91 1/1/1 93/93/93
f 91/91/91 93/93/93 92/92/92
f 92/92/92 93/93/93 94/94/94
f 92/92/92 94/94/94 4/4/4
f 93/93/93 1/1/1 95/95/95
f 93/93/93 95/95/95 94/94/94
f 94/94/94 95/95/95 96/96/96
f 94/94/94 96/96/96 4/4/4
f 95/95/95 1/1/1 97/97/97
f 95/95/95 97/97/97 96/96/96
f 96/96/96 97/97/97 98/98/98
f 96/96/96 98/98/98 4/4/4
f 97/97/97 1/1/1 99/99/99
f 97/97/97 99/99/99 98/98/98
f 98/98/98 99/99/99 100/100/100
f 98/98/98 100/100/100 4/4/4
f 99/99/99 1/1/1 101/101/101
f 99/99/99 101/101/101 100/100/100
f 100/100/100 101/101/101 102/102/102
f 100/100/100 102/102/102 4/4/4
f 101/101/101 1/1/1 103/103/103
f 101/101/101 103/103/103 102/102/102
f 102/102/102 103/103/103 104/104/104
f 102/102/102 104/104/104 4/4/4
f 103/103/103 1/1/1 105/105/105
f 103/103/103 105/105/105 104/104/104
f 104/104/104 105/105/105 106/106/106
f 104/104/104 106/106/106 4/4/4
f 105/105/105 1/1/1 107/107/107
f 105/105/105 107/107/107 106/106/106
f 106/106/106 107/107/107 108/108/108
f 106/106/106 108/108/108 4/4/4
f 107/107/107 1/1/1 109/109/109
f 107/107/107 109/109/109 108/108/108
f 108/108/108 109/109/109 110/110/110
f 108/108/108 110/110/110 4/4/4
f 109/109/109 1/1/1 111/111/111
f 109/109/109 111/111/111 110/110/110
f 110/110/110 111/111/111 112/112/112
f 110/110/110 112/112/112 4/4/4
f 111/111/111 1/1/1 113/113/113
f 111/111/111 113/113/113 112/112/112
f 112/112/112 113/113/113 114/114/114
f 112/112/112 114/114/114 4/4/4
f 113/113/113 1/1/1 115/115/115
f 113/113/113 115/115/115 114/114/114
f 114/114/114 115/115/115 116/116/116
f 114/114/114 116/116/116 4/4/4
f 115/115/115 1/1/1 117/117/117
f 115/115/115 117/117/117 116/116/116
f 116/116/116 117/117/117 118/118/118
f 116/116/116 118/118/118 4/4/4
f 117/117/117 1/1/1 119/119/119
f 117/117/117 119/119/119 118/118/118
f 118/118/118 119/119/119 120/120/120
f 118/118/118 120/120/120 4/4/4
f 119/119/119 1/1/1 121/121/121
f 119/119/119 121/121/121 120/120/120
f 120/120/120 121/121/121 122/122/122
f 120/120/120 122/122/122 4/4/4
f 121/121/121 1/1/1 123/123/123
f 121/121/121 123/123/123 122/122/122
f 122/122/122 123/123/123 124/124/124
f 122/122/122 124/124/124 4/4/4
f 123/123/123 1/1/1 125/125/125
f 123/123/123 125/125/125 124/124/124
f 124/124/124 125/125/125 126/126/126
f 124/124/124 126/126/126 4/4/4
f 125/125/125 1/1/1 127/127/127
f 125/125/125 127/127/127 126/126/126
f 126/126/126 127/127/127 128/128/128
f 126/126/126 128/128/128 4/4/4
f 127/127/127 1/1/1 129/129/129
f 127/127/127 129/129/129 128/128/128
f 128/128/128 129/129/129 130/130/130
f 128/128/128 130/130/130 4/4/4
f 129/129/129 1/1/1 2/2/2
f 129/129/129 2/2/2 130/130/130
f 130/130/130 2/2/2 3/3/3
f 130/130/130 3/3/3 4/4/4
o BlackLegs
usemtl BlackMetal
v -0.220000 0.980000 -0.220000
v -0.221556 0.978540 -0.195091
v -0.281556 0.018540 -0.255091
v -0.280000 0.020000 -0.280000
v -0.229980 0.979192 -0.197093
v -0.289980 0.019192 -0.257093
v -0.237200 0.979941 -0.201857
v -0.297200 0.019941 -0.261857
v -0.242345 0.980697 -0.208810
v -0.302345 0.020697 -0.268810
v -0.244795 0.981369 -0.217112
v -0.304795 0.021369 -0.277112
v -0.244254 0.981876 -0.225763
v -0.304254 0.021876 -0.285763
v -0.240788 0.982157 -0.233718
v -0.300788 0.022157 -0.293718
v -0.234815 0.982177 -0.240019
v -0.294815 0.022177 -0.300019
v -0.227055 0.981935 -0.243906
v -0.287055 0.021935 -0.303906
v -0.218444 0.981460 -0.244909
v -0.278444 0.021460 -0.304909
v -0.210020 0.980808 -0.242907
v -0.270020 0.020808 -0.302907
v -0.202800 0.980059 -0.238143
v -0.262800 0.020059 -0.298143
v -0.197655 0.979303 -0.231190
v -0.257655 0.019303 -0.291190
v -0.195205 0.978631 -0.222888
v -0.255205 0.018631 -0.282888
v -0.195746 0.978124 -0.214237
v -0.255746 0.018124 -0.274237
v -0.199212 0.977843 -0.206282
v -0.259212 0.017843 -0.266282
v -0.205185 0.977823 -0.199981
v -0.265185 0.017823 -0.259981
v -0.212945 0.978065 -0.196094
v -0.272945 0.018065 -0.256094
v 0.220000 0.980000 -0.220000
v 0.218444 0.981460 -0.244909
v 0.278444 0.021460 -0.304909
v 0.280000 0.020000 -0.280000
v 0.227055 0.981935 -0.243906
v 0.287055 0.021935 -0.303906
v 0.234815 0.982177 -0.240019
v 0.294815 0.022177 -0.300019
v 0.240788 0.982157 -0.233718
v 0.300788 0.022157 -0.293718
v 0.244254 0.981876 -0.225763
v 0.304254 0.021876 -0.285763
v 0.244795 0.981369 -0.217112
v 0.304795 0.021369 -0.277112
v 0.242345 0.980697 -0.208810
v 0.302345 0.020697 -0.268810
v 0.237200 0.979941 -0.201857
v 0.297200 0.019941 -0.261857
v 0.229980 0.979192 -0.197093
v 0.289980 0.019192 -0.257093
v 0.221556 0.978540 -0.195091
v 0.281556 0.018540 -0.255091
v 0.212945 0.978065 -0.196094
v 0.272945 0.018065 -0.256094
v 0.205185 0.977823 -0.199981
v 0.265185 0.017823 -0.259981
v 0.199212 0.977843 -0.206282
v 0.259212 0.017843 -0.266282
v 0.195746 0.978124 -0.214237
v 0.255746 0.018124 -0.274237
v 0.195205 0.978631 -0.222888
v 0.255205 0.018631 -0.282888
v 0.197655 0.979303 -0.231190
v 0.257655 0.019303 -0.291190
v 0.202800 0.980059 -0.238143
v 0.262800 0.020059 -0.298143
v 0.210020 0.980808 -0.242907
v 0.270020 0.020808 -0.302907
v 0.220000 0.980000 0.220000
v 0.221556 0.978540 0.195091
v 0.281556 0.018540 0.255091
v 0.280000 0.020000 0.280000
v 0.229980 0.979192 0.197093
v 0.289980 0.019192 0.257093
v 0.237200 0.979941 0.201857
v 0.297200 0.019941 0.261857
v 0.242345 0.980697 0.208810
v 0.302345 0.020697 0.268810
v 0.244795 0.981369 0.217112
v 0.304795 0.021369 0.277112
v 0.244254 0.981876 0.225763
v 0.304254 0.021876 0.285763
v 0.240788 0.982157 0.233718
v 0.300788 0.022157 0.293718
v 0.234815 0.982177 0.240019
v 0.294815 0.022177 0.300019
v 0.227055 0.981935 0.243906
v 0.287055 0.021935 0.303906
v 0.218444 0.981460 0.244909
v 0.278444 0.021460 0.304909
v 0.210020 0.980808 0.242907
v 0.270020 0.020808 0.302907
v 0.202800 0.980059 0.238143
v 0.262800 0.020059 0.298143
v 0.197655 0.979303 0.231190
v 0.257655 0.019303 0.291190
v 0.195205 0.978631 0.222888
v 0.255205 0.018631 0.282888
v 0.195746 0.978124 0.214237
v 0.255746 0.018124 0.274237
v 0.199212 0.977843 0.206282
v 0.259212 0.017843 0.266282
v 0.205185 0.977823 0.199981
v 0.265185 0.017823 0.259981
v 0.212945 0.978065 0.196094
v 0.272945 0.018065 0.256094
v -0.220000 0.980000 0.220000
v -0.218444 0.981460 0.244909
v -0.278444 0.021460 0.304909
v -0.280000 0.020000 0.280000
v -0.227055 0.981935 0.243906
v -0.287055 0.021935 0.303906
v -0.234815 0.982177 0.240019
v -0.294815 0.022177 0.300019
v -0.240788 0.982157 0.233718
v -0.300788 0.022157 0.293718
v -0.244254 0.981876 0.225763
v -0.304254 0.021876 0.285763
v -0.244795 0.981369 0.217112
v -0.304795 0.021369 0.277112
v -0.242345 0.980697 0.208810
v -0.302345 0.020697 0.268810
v -0.237200 0.979941 0.201857
v -0.297200 0.019941 0.261857
v -0.229980 0.979192 0.197093
v -0.289980 0.019192 0.257093
v -0.221556 0.978540 0.195091
v -0.281556 0.018540 0.255091
v -0.212945 0.978065 0.196094
v -0.272945 0.018065 0.256094
v -0.205185 0.977823 0.199981
v -0.265185 0.017823 0.259981
v -0.199212 0.977843 0.206282
v -0.259212 0.017843 0.266282
v -0.195746 0.978124 0.214237
v -0.255746 0.018124 0.274237
v -0.195205 0.978631 0.222888
v -0.255205 0.018631 0.282888
v -0.197655 0.979303 0.231190
v -0.257655 0.019303 0.291190
v -0.202800 0.980059 0.238143
v -0.262800 0.020059 0.298143
v -0.210020 0.980808 0.242907
v -0.270020 0.020808 0.302907
vt 0.139102 0.997742
vt 0.136548 0.996229
vt 0.038121 0.000744
vt 0.040675 0.002258
vt 0.122730 0.996905
vt 0.024303 0.001420
vt 0.110887 0.997681
vt 0.012460 0.002196
vt 0.102446 0.998465
vt 0.004019 0.002981
vt 0.098427 0.999162
vt 0.000000 0.003677
vt 0.099314 0.999688
vt 0.000887 0.004203
vt 0.104999 0.999979
vt 0.006572 0.004494
vt 0.114798 1.000000
vt 0.016371 0.004515
vt 0.127529 0.999749
vt 0.029102 0.004264
vt 0.141655 0.999256
vt 0.043228 0.003771
vt 0.155473 0.998580
vt 0.057046 0.003095
vt 0.167317 0.997804
vt 0.068890 0.002319
vt 0.175757 0.997019
vt 0.077330 0.001535
vt 0.179776 0.996323
vt 0.081349 0.000838
vt 0.178889 0.995797
vt 0.080463 0.000312
vt 0.173204 0.995506
vt 0.074777 0.000021
vt 0.163405 0.995485
vt 0.064978 0.000000
vt 0.150674 0.995736
vt 0.052248 0.000251
vt 0.860898 0.997742
vt 0.858345 0.999256
vt 0.956772 0.003771
vt 0.959325 0.002258
vt 0.872471 0.999749
vt 0.970898 0.004264
vt 0.885202 1.000000
vt 0.983629 0.004515
vt 0.895001 0.999979
vt 0.993428 0.004494
vt 0.900686 0.999688
vt 0.999113 0.004203
vt 0.901573 0.999162
vt 1.000000 0.003677
vt 0.897554 0.998465
vt 0.995981 0.002981
vt 0.889113 0.997681
vt 0.987540 0.002196
vt 0.877270 0.996905
vt 0.975697 0.001420
vt 0.863452 0.996229
vt 0.961879 0.000744
vt 0.849326 0.995736
vt 0.947752 0.000251
vt 0.836595 0.995485
vt 0.935022 0.000000
vt 0.826796 0.995506
vt 0.925223 0.000021
vt 0.821111 0.995797
vt 0.919537 0.000312
vt 0.820224 0.996323
vt 0.918651 0.000838
vt 0.824243 0.997019
vt 0.922670 0.001535
vt 0.832683 0.997804
vt 0.931110 0.002319
vt 0.844527 0.998580
vt 0.942954 0.003095
vt 0.860898 0.997742
vt 0.863452 0.996229
vt 0.961879 0.000744
vt 0.959325 0.002258
vt 0.877270 0.996905
vt 0.975697 0.001420
vt 0.889113 0.997681
vt 0.987540 0.002196
vt 0.897554 0.998465
vt 0.995981 0.002981
vt 0.901573 0.999162
vt 1.000000 0.003677
vt 0.900686 0.999688
vt 0.999113 0.004203
vt 0.895001 0.999979
vt 0.993428 0.004494
vt 0.885202 1.000000
vt 0.983629 0.004515
vt 0.872471 0.999749
vt 0.970898 0.004264
vt 0.858345 0.999256
vt 0.956772 0.003771
vt 0.844527 0.998580
vt 0.942954 0.003095
vt 0.832683 0.997804
vt 0.931110 0.002319
vt 0.824243 0.997019
vt 0.922670 0.001535
vt 0.820224 0.996323
vt 0.918651 0.000838
vt 0.821111 0.995797
vt 0.919537 0.000312
vt 0.826796 0.995506
vt 0.925223 0.000021
vt 0.836595 0.995485
vt 0.935022 0.000000
vt 0.849326 0.995736
vt 0.947752 0.000251
vt 0.139102 0.997742
vt 0.141655 0.999256
vt 0.043228 0.003771
vt 0.040675 0.002258
vt 0.127529 0.999749
vt 0.029102 0.004264
vt 0.114798 1.000000
vt 0.016371 0.004515
vt 0.104999 0.999979
vt 0.006572 0.004494
vt 0.099314 0.999688
vt 0.000887 0.004203
vt 0.098427 0.999162
vt 0.000000 0.003677
vt 0.102446 0.998465
vt 0.004019 0.002981
vt 0.110887 0.997681
vt 0.012460 0.002196
vt 0.122730 0.996905
vt 0.024303 0.001420
vt 0.136548 0.996229
vt 0.038121 0.000744
vt 0.150674 0.995736
vt 0.052248 0.000251
vt 0.163405 0.995485
vt 0.064978 0.000000
vt 0.173204 0.995506
vt 0.074777 0.000021
vt 0.178889 0.995797
vt 0.080463 0.000312
vt 0.179776 0.996323
vt 0.081349 0.000838
vt 0.175757 0.997019
vt 0.077330 0.001535
vt 0.167317 0.997804
vt 0.068890 0.002319
vt 0.155473 0.998580
vt 0.057046 0.003095
vn 0.062257 0.996116 0.062257
vn -0.004501 0.624091 0.781339
vn -0.087930 -0.710767 0.697910
vn -0.062257 -0.996116 -0.062257
vn -0.254621 0.643438 0.721912
vn -0.338050 -0.691420 0.638483
vn -0.468998 0.665678 0.580442
vn -0.552427 -0.669180 0.497014
vn -0.621776 0.688130 0.373995
vn -0.705205 -0.646728 0.290566
vn -0.694527 0.708084 0.127469
vn -0.777956 -0.626773 0.044040
vn -0.678477 0.723135 -0.129400
vn -0.761905 -0.611722 -0.212828
vn -0.575561 0.731468 -0.365630
vn -0.658989 -0.603390 -0.449058
vn -0.398192 0.732076 -0.552728
vn -0.481621 -0.602782 -0.636157
vn -0.167764 0.724886 -0.668128
vn -0.251193 -0.609971 -0.751556
vn 0.087930 0.710767 -0.697910
vn 0.004501 -0.624091 -0.781339
vn 0.338050 0.691420 -0.638483
vn 0.254621 -0.643438 -0.721912
vn 0.552427 0.669180 -0.497014
vn 0.468998 -0.665678 -0.580442
vn 0.705205 0.646728 -0.290566
vn 0.621776 -0.688130 -0.373995
vn 0.777956 0.626773 -0.044040
vn 0.694527 -0.708084 -0.127469
vn 0.761905 0.611722 0.212828
vn 0.678477 -0.723135 0.129400
vn 0.658989 0.603390 0.449058
vn 0.575561 -0.731468 0.365630
vn 0.481621 0.602782 0.636157
vn 0.398192 -0.732076 0.552728
vn 0.251193 0.609971 0.751556
vn 0.167764 -0.724886 0.668128
vn -0.062257 0.996116 0.062257
vn -0.087930 0.710767 -0.697910
vn -0.004501 -0.624091 -0.781339
vn 0.062257 -0.996116 -0.062257
vn 0.167764 0.724886 -0.668128
vn 0.251193 -0.609971 -0.751556
vn 0.398192 0.732076 -0.552728
vn 0.481621 -0.602782 -0.636157
vn 0.575561 0.731468 -0.365630
vn 0.658989 -0.603390 -0.449058
vn 0.678477 0.723135 -0.129400
vn 0.761905 -0.611722 -0.212828
vn 0.694527 0.708084 0.127469
vn 0.777956 -0.626773 0.044040
vn 0.621776 0.688130 0.373995
vn 0.705205 -0.646728 0.290566
vn 0.468998 0.665678 0.580442
vn 0.552427 -0.669180 0.497014
vn 0.254621 0.643438 0.721912
vn 0.338050 -0.691420 0.638483
vn 0.004501 0.624091 0.781339
vn 0.087930 -0.710767 0.697910
vn -0.251193 0.609971 0.751556
vn -0.167764 -0.724886 0.668128
vn -0.481621 0.602782 0.636157
vn -0.398192 -0.732076 0.552728
vn -0.658989 0.603390 0.449058
vn -0.575561 -0.731468 0.365630
vn -0.761905 0.611722 0.212828
vn -0.678477 -0.723135 0.129400
vn -0.777956 0.626773 -0.044040
vn -0.694527 -0.708084 -0.127469
vn -0.705205 0.646728 -0.290566
vn -0.621776 -0.688130 -0.373995
vn -0.552427 0.669180 -0.497014
vn -0.468998 -0.665678 -0.580442
vn -0.338050 0.691420 -0.638483
vn -0.254621 -0.643438 -0.721912
vn -0.062257 0.996116 -0.062257
vn 0.004501 0.624091 -0.781339
vn 0.087930 -0.710767 -0.697910
vn 0.062257 -0.996116 0.062257
vn 0.254621 0.643438 -0.721912
vn 0.338050 -0.691420 -0.638483
vn 0.468998 0.665678 -0.580442
vn 0.552427 -0.669180 -0.497014
vn 0.621776 0.688130 -0.373995
vn 0.705205 -0.646728 -0.290566
vn 0.694527 0.708084 -0.127469
vn 0.777956 -0.626773 -0.044040
vn 0.678477 0.723135 0.129400
vn 0.761905 -0.611722 0.212828
vn 0.575561 0.731468 0.365630
vn 0.658989 -0.603390 0.449058
vn 0.398192 0.732076 0.552728
vn 0.481621 -0.602782 0.636157
vn 0.167764 0.724886 0.668128
vn 0.251193 -0.609971 0.751556
vn -0.087930 0.710767 0.697910
vn -0.004501 -0.624091 0.781339
vn -0.338050 0.691420 0.638483
vn -0.254621 -0.643438 0.721912
vn -0.552427 0.669180 0.497014
vn -0.468998 -0.665678 0.580442
vn -0.705205 0.646728 0.290566
vn -0.621776 -0.688130 0.373995
vn -0.777956 0.626773 0.044040
vn -0.694527 -0.708084 0.127469
vn -0.761905 0.611722 -0.212828
vn -0.678477 -0.723135 -0.129400
vn -0.658989 0.603390 -0.449058
vn -0.575561 -0.731468 -0.365630
vn -0.481621 0.602782 -0.636157
vn -0.398192 -0.732076 -0.552728
vn -0.251193 0.609971 -0.751556
vn -0.167764 -0.724886 -0.668128
vn 0.062257 0.996116 -0.062257
vn 0.087930 0.710767 0.697910
vn 0.004501 -0.624091 0.781339
vn -0.062257 -0.996116 0.062257
vn -0.167764 0.724886 0.668128
vn -0.251193 -0.609971 0.751556
vn -0.398192 0.732076 0.552728
vn -0.481621 -0.602782 0.636157
vn -0.575561 0.731468 0.365630
vn -0.658989 -0.603390 0.449058
vn -0.678477 0.723135 0.129400
vn -0.761905 -0.611722 0.212828
vn -0.694527 0.708084 -0.127469
vn -0.777956 -0.626773 -0.044040
vn -0.621776 0.688130 -0.373995
vn -0.705205 -0.646728 -0.290566
vn -0.468998 0.665678 -0.580442
vn -0.552427 -0.669180 -0.497014
vn -0.254621 0.643438 -0.721912
vn -0.338050 -0.691420 -0.638483
vn -0.004501 0.624091 -0.781339
vn -0.087930 -0.710767 -0.697910
vn 0.251193 0.609971 -0.751556
vn 0.167764 -0.724886 -0.668128
vn 0.481621 0.602782 -0.636157
vn 0.398192 -0.732076 -0.552728
vn 0.658989 0.603390 -0.449058
vn 0.575561 -0.731468 -0.365630
vn 0.761905 0.611722 -0.212828
vn 0.678477 -0.723135 -0.129400
vn 0.777956 0.626773 0.044040
vn 0.694527 -0.708084 0.127469
vn 0.705205 0.646728 0.290566
vn 0.621776 -0.688130 0.373995
vn 0.552427 0.669180 0.497014
vn 0.468998 -0.665678 0.580442
vn 0.338050 0.691420 0.638483
vn 0.254621 -0.643438 0.721912
f 132/132/132 131/131/131 135/135/135
f 132/132/132 135/135/135 133/133/133
f 133/133/133 135/135/135 136/136/136
f 133/133/133 136/136/136 134/134/134
f 135/135/135 131/131/131 137/137/137
f 135/135/135 137/137/137 136/136/136
f 136/136/136 137/137/137 138/138/138
f 136/136/136 138/138/138 134/134/134
f 137/137/137 131/131/131 139/139/139
f 137/137/137 139/139/139 138/138/138
f 138/138/138 139/139/139 140/140/140
f 138/138/138 140/140/140 134/134/134
f 139/139/139 131/131/131 141/141/141
f 139/139/139 141/141/141 140/140/140
f 140/140/140 141/141/141 142/142/142
f 140/140/140 142/142/142 134/134/134
f 141/141/141 131/131/131 143/143/143
f 141/141/141 143/143/143 142/142/142
f 142/142/142 143/143/143 144/144/144
f 142/142/142 144/144/144 134/134/134
f 143/143/143 131/131/131 145/145/145
f 143/143/143 145/145/145 144/144/144
f 144/144/144 145/145/145 146/146/146
f 144/144/144 146/146/146 134/134/134
f 145/145/145 131/131/131 147/147/147
f 145/145/145 147/147/147 146/146/146
f 146/146/146 147/147/147 148/148/148
f 146/146/146 148/148/148 134/134/134
f 147/147/147 131/131/131 149/149/149
f 147/147/147 149/149/149 148/148/148
f 148/148/148 149/149/149 150/150/150
f 148/148/148 150/150/150 134/134/134
f 149/149/149 131/131/131 151/151/151
f 149/149/149 151/151/151 150/150/150
f 150/150/150 151/151/151 152/152/152
f 150/150/150 152/152/152 134/134/134
f 151/151/151 131/131/131 153/153/153
f 151/151/151 153/153/153 152/152/152
f 152/152/152 153/153/153 154/154/154
f 152/152/152 154/154/154 134/134/134
f 153/153/153 131/131/131 155/155/155
f 153/153/153 155/155/155 154/154/154
f 154/154/154 155/155/155 156/156/156
f 154/154/154 156/156/156 134/134/134
f 155/155/155 131/131/131 157/157/157
f 155/155/155 157/157/157 156/156/156
f 156/156/156 157/157/157 158/158/158
f 156/156/156 158/158/158 134/134/134
f 157/157/157 131/131/131 159/159/159
f 157/157/157 159/159/159 158/158/158
f 158/158/158 159/159/159 160/160/160
f 158/158/158 160/160/160 134/134/134
f 159/159/159 131/131/131 161/161/161
f 159/159/159 161/161/161 160/160/160
f 160/160/160 161/161/161 162/162/162
f 160/160/160 162/162/162 134/134/134
f 161/161/161 131/131/131 163/163/163
f 161/161/161 163/163/163 162/162/162
f 162/162/162 163/163/163 164/164/164
f 162/162/162 164/164/164 134/134/134
f 163/163/163 131/131/131 165/165/165
f 163/163/163 165/165/165 164/164/164
f 164/164/164 165/165/165 166/166/166
f 164/164/164 166/166/166 134/134/134
f 165/165/165 131/131/131 167/167/167
f 165/165/165 167/167/167 166/166/166
f 166/166/166 167/167/167 168/168/168
f 166/166/166 168/168/168 134/134/134
f 167/167/167 131/131/131 132/132/132
f 167/167/167 132/132/132 168/168/168
f 168/168/168 132/132/132 133/133/133
f 168/168/168 133/133/133 134/134/134
f 170/170/170 169/169/169 173/173/173
f 170/170/170 173/173/173 171/171/171
f 171/171/171 173/173/173 174/174/174
f 171/171/171 174/174/174 172/172/172
f 173/173/173 169/169/169 175/175/175
f 173/173/173 175/175/175 174/174/174
f 174/174/174 175/175/175 176/176/176
f 174/174/174 176/176/176 172/172/172
f 175/175/175 169/169/169 177/177/177
f 175/175/175 177/177/177 176/176/176
f 176/176/176 177/177/177 178/178/178
f 176/176/176 178/178/178 172/172/172
f 177/177/177 169/169/169 179/179/179
f 177/177/177 179/179/179 178/178/178
f 178/178/178 179/179/179 180/180/180
f 178/178/178 180/180/180 172/172/172
f 179/179/179 169/169/169 181/181/181
f 179/179/179 181/181/181 180/180/180
f 180/180/180 181/181/181 182/182/182
f 180/180/180 182/182/182 172/172/172
f 181/181/181 169/169/169 183/183/183
f 181/181/181 183/183/183 182/182/182
f 182/182/182 183/183/183 184/184/184
f 182/182/182 184/184/184 172/172/172
f 183/183/183 169/169/169 185/185/185
f 183/183/183 185/185/185 184/184/184
f 184/184/184 185/185/185 186/186/186
f 184/184/184 186/186/186 172/172/172
f 185/185/185 169/169/169 187/187/187
f 185/185/185 187/187/187 186/186/186
f 186/186/186 187/187/187 188/188/188
f 186/186/186 188/188/188 172/172/172
f 187/187/187 169/169/169 189/189/189
f 187/187/187 189/189/189 188/188/188
f 188/188/188 189/189/189 190/190/190
f 188/188/188 190/190/190 172/172/172
f 189/189/189 169/169/169 191/191/191
f 189/189/189 191/191/191 190/190/190
f 190/190/190 191/191/191 192/192/192
f 190/190/190 192/192/192 172/172/172
f 191/191/191 169/169/169 193/193/193
f 191/191/191 193/193/193 192/192/192
f 192/192/192 193/193/193 194/194/194
f 192/192/192 194/194/194 172/172/172
f 193/193/193 169/169/169 195/195/195
f 193/193/193 195/195/195 194/194/194
f 194/194/194 195/195/195 196/196/196
f 194/194/194 196/196/196 172/172/172
f 195/195/195 169/169/169 197/197/197
f 195/195/195 197/197/197 196/196/196
f 196/196/196 197/197/197 198/198/198
f 196/196/196 198/198/198 172/172/172
f 197/197/197 169/169/169 199/199/199
f 197/197/197 199/199/199 198/198/198
f 198/198/198 199/199/199 200/200/200
f 198/198/198 200/200/200 172/172/172
f 199/199/199 169/169/169 201/201/201
f 199/199/199 201/201/201 200/200/200
f 200/200/200 201/201/201 202/202/202
f 200/200/200 202/202/202 172/172/172
f 201/201/201 169/169/169 203/203/203
f 201/201/201 203/203/203 202/202/202
f 202/202/202 203/203/203 204/204/204
f 202/202/202 204/204/204 172/172/172
f 203/203/203 169/169/169 205/205/205
f 203/203/203 205/205/205 204/204/204
f 204/204/204 205/205/205 206/206/206
f 204/204/204 206/206/206 172/172/172
f 205/205/205 169/169/169 170/170/170
f 205/205/205 170/170/170 206/206/206
f 206/206/206 170/170/170 171/171/171
f 206/206/206 171/171/171 172/172/172
f 208/208/208 207/207/207 211/211/211
f 208/208/208 211/211/211 209/209/209
f 209/209/209 211/211/211 212/212/212
f 209/209/209 212/212/212 210/210/210
f 211/211/211 207/207/207 213/213/213
f 211/211/211 213/213/213 212/212/212
f 212/212/212 213/213/213 214/214/214
f 212/212/212 214/214/214 210/210/210
f 213/213/213 207/207/207 215/215/215
f 213/213/213 215/215/215 214/214/214
f 214/214/214 215/215/215 216/216/216
f 214/214/214 216/216/216 210/210/210
f 215/215/215 207/207/207 217/217/217
f 215/215/215 217/217/217 216/216/216
f 216/216/216 217/217/217 218/218/218
f 216/216/216 218/218/218 210/210/210
f 217/217/217 207/207/207 219/219/219
f 217/217/217 219/219/219 218/218/218
f 218/218/218 219/219/219 220/220/220
f 218/218/218 220/220/220 210/210/210
f 219/219/219 207/207/207 221/221/221
f 219/219/219 221/221/221 220/220/220
f 220/220/220 221/221/221 222/222/222
f 220/220/220 222/222/222 210/210/210
f 221/221/221 207/207/207 223/223/223
f 221/221/221 223/223/223 222/222/222
f 222/222/222 223/223/223 224/224/224
f 222/222/222 224/224/224 210/210/210
f 223/223/223 207/207/207 225/225/225
f 223/223/223 225/225/225 224/224/224
f 224/224/224 225/225/225 226/226/226
f 224/224/224 226/226/226 210/210/210
f 225/225/225 207/207/207 227/227/227
f 225/225/225 227/227/227 226/226/226
f 226/226/226 227/227/227 228/228/228
f 226/226/226 228/228/228 210/210/210
f 227/227/227 207/207/207 229/229/229
f 227/227/227 229/229/229 228/228/228
f 228/228/228 229/229/229 230/230/230
f 228/228/228 230/230/230 210/210/210
f 229/229/229 207/207/207 231/231/231
f 229/229/229 231/231/231 230/230/230
f 230/230/230 231/231/231 232/232/232
f 230/230/230 232/232/232 210/210/210
f 231/231/231 207/207/207 233/233/233
f 231/231/231 233/233/233 232/232/232
f 232/232/232 233/233/233 234/234/234
f 232/232/232 234/234/234 210/210/210
f 233/233/233 207/207/207 235/235/235
f 233/233/233 235/235/235 234/234/234
f 234/234/234 235/235/235 236/236/236
f 234/234/234 236/236/236 210/210/210
f 235/235/235 207/207/207 237/237/237
f 235/235/235 237/237/237 236/236/236
f 236/236/236 237/237/237 238/238/238
f 236/236/236 238/238/238 210/210/210
f 237/237/237 207/207/207 239/239/239
f 237/237/237 239/239/239 238/238/238
f 238/238/238 239/239/239 240/240/240
f 238/238/238 240/240/240 210/210/210
f 239/239/239 207/207/207 241/241/241
f 239/239/239 241/241/241 240/240/240
f 240/240/240 241/241/241 242/242/242
f 240/240/240 242/242/242 210/210/210
f 241/241/241 207/207/207 243/243/243
f 241/241/241 243/243/243 242/242/242
f 242/242/242 243/243/243 244/244/244
f 242/242/242 244/244/244 210/210/210
f 243/243/243 207/207/207 208/208/208
f 243/243/243 208/208/208 244/244/244
f 244/244/244 208/208/208 209/209/209
f 244/244/244 209/209/209 210/210/210
f 246/246/246 245/245/245 249/249/249
f 246/246/246 249/249/249 247/247/247
f 247/247/247 249/249/249 250/250/250
f 247/247/247 250/250/250 248/248/248
f 249/249/249 245/245/245 251/251/251
f 249/249/249 251/251/251 250/250/250
f 250/250/250 251/251/251 252/252/252
f 250/250/250 252/252/252 248/248/248
f 251/251/251 245/245/245 253/253/253
f 251/251/251 253/253/253 252/252/252
f 252/252/252 253/253/253 254/254/254
f 252/252/252 254/254/254 248/248/248
f 253/253/253 245/245/245 255/255/255
f 253/253/253 255/255/255 254/254/254
f 254/254/254 255/255/255 256/256/256
f 254/254/254 256/256/256 248/248/248
f 255/255/255 245/245/245 257/257/257
f 255/255/255 257/257/257 256/256/256
f 256/256/256 257/257/257 258/258/258
f 256/256/256 258/258/258 248/248/248
f 257/257/257 245/245/245 259/259/259
f 257/257/257 259/259/259 258/258/258
f 258/258/258 259/259/259 260/260/260
f 258/258/258 260/260/260 248/248/248
f 259/259/259 245/245/245 261/261/261
f 259/259/259 261/261/261 260/260/260
f 260/260/260 261/261/261 262/262/262
f 260/260/260 262/262/262 248/248/248
f 261/261/261 245/245/245 263/263/263
f 261/261/261 263/263/263 262/262/262
f 262/262/262 263/263/263 264/264/264
f 262/262/262 264/264/264 248/248/248
f 263/263/263 245/245/245 265/265/265
f 263/263/263 265/265/265 264/264/264
f 264/264/264 265/265/265 266/266/266
f 264/264/264 266/266/266 248/248/248
f 265/265/265 245/245/245 267/267/267
f 265/265/265 267/267/267 266/266/266
f 266/266/266 267/267/267 268/268/268
f 266/266/266 268/268/268 248/248/248
f 267/267/267 245/245/245 269/269/269
f 267/267/267 269/269/269 268/268/268
f 268/268/268 269/269/269 270/270/270
f 268/268/268 270/270/270 248/248/248
f 269/269/269 245/245/245 271/271/271
f 269/269/269 271/271/271 270/270/270
f 270/270/270 271/271/271 272/272/272
f 270/270/270 272/272/272 248/248/248
f 271/271/271 245/245/245 273/273/273
f 271/271/271 273/273/273 272/272/272
f 272/272/272 273/273/273 274/274/274
f 272/272/272 274/274/274 248/248/248
f 273/273/273 245/245/245 275/275/275
f 273/273/273 275/275/275 274/274/274
f 274/274/274 275/275/275 276/276/276
f 274/274/274 276/276/276 248/248/248
f 275/275/275 245/245/245 277/277/277
f 275/275/275 277/277/277 276/276/276
f 276/276/276 277/277/277 278/278/278
f 276/276/276 278/278/278 248/248/248
f 277/277/277 245/245/245 279/279/279
f 277/277/277 279/279/279 278/278/278
f 278/278/278 279/279/279 280/280/280
f 278/278/278 280/280/280 248/248/248
f 279/279/279 245/245/245 281/281/281
f 279/279/279 281/281/281 280/280/280
f 280/280/280 281/281/281 282/282/282
f 280/280/280 282/282/282 248/248/248
f 281/281/281 245/245/245 246/246/246
f 281/281/281 246/246/246 282/282/282
f 282/282/282 246/246/246 247/247/247
f 282/282/282 247/247/247 248/248/248
