# UIU Floor Marker 2
# Generated for Unity. Front faces toward +Z. Height normalized to 1 Unity unit.
o FloorMarker_2
v -0.354210526 0.442105263 0.075000000
v -0.354210526 0.226315789 0.075000000
v -0.276473684 0.270210526 0.075000000
v -0.354210526 0.442105263 0.000000000
v -0.354210526 0.226315789 0.000000000
v -0.276473684 0.270210526 0.000000000
v -0.269210526 0.466947368 0.075000000
v -0.269210526 0.466947368 0.000000000
v -0.203684211 0.301684211 0.075000000
v -0.203684211 0.301684211 0.000000000
v -0.185157895 0.485052632 0.075000000
v -0.185157895 0.485052632 0.000000000
v -0.136000000 0.320631579 0.075000000
v -0.136000000 0.320631579 0.000000000
v -0.102421053 0.496263158 0.075000000
v -0.102421053 0.496263158 0.000000000
v -0.074000000 0.326947368 0.075000000
v -0.074000000 0.326947368 0.000000000
v -0.021368421 0.500000000 0.075000000
v -0.021368421 0.500000000 0.000000000
v -0.004631579 0.316421053 0.075000000
v -0.004631579 0.316421053 0.000000000
v 0.135368421 0.480578947 0.075000000
v 0.135368421 0.480578947 0.000000000
v 0.049368421 0.284842105 0.075000000
v 0.049368421 0.284842105 0.000000000
v 0.252736842 0.422315789 0.075000000
v 0.252736842 0.422315789 0.000000000
v 0.084105263 0.236000000 0.075000000
v 0.084105263 0.236000000 0.000000000
v 0.326000000 0.329473684 0.075000000
v 0.326000000 0.329473684 0.000000000
v 0.350421053 0.205894737 0.075000000
v 0.350421053 0.205894737 0.000000000
v 0.095684211 0.173684211 0.075000000
v 0.095684211 0.173684211 0.000000000
v 0.340052632 0.128368421 0.075000000
v 0.340052632 0.128368421 0.000000000
v 0.356947368 -0.500000000 0.075000000
v 0.356947368 -0.313894737 0.075000000
v -0.075263158 -0.313894737 0.075000000
v 0.356947368 -0.500000000 0.000000000
v 0.356947368 -0.313894737 0.000000000
v -0.075263158 -0.313894737 0.000000000
v -0.356947368 -0.500000000 0.075000000
v -0.356947368 -0.500000000 0.000000000
v -0.356947368 -0.313894737 0.075000000
v -0.356947368 -0.313894737 0.000000000
v 0.001578947 0.002736842 0.075000000
v 0.001578947 0.002736842 0.000000000
v 0.089947368 0.129842105 0.075000000
v 0.308947368 0.056210526 0.075000000
v 0.089947368 0.129842105 0.000000000
v 0.308947368 0.056210526 0.000000000
v 0.134631579 -0.129684211 0.075000000
v 0.134631579 -0.129684211 0.000000000
v 0.043473684 0.045631579 0.075000000
v 0.043473684 0.045631579 0.000000000
v 0.244631579 -0.024894737 0.075000000
v 0.244631579 -0.024894737 0.000000000
v 0.072736842 0.087578947 0.075000000
v 0.072736842 0.087578947 0.000000000
f 1 2 3
f 4 6 5
f 1 3 7
f 4 8 6
f 7 3 9
f 8 10 6
f 7 9 11
f 8 12 10
f 11 9 13
f 12 14 10
f 11 13 15
f 12 16 14
f 15 13 17
f 16 18 14
f 15 17 19
f 16 20 18
f 19 17 21
f 20 22 18
f 19 21 23
f 20 24 22
f 23 21 25
f 24 26 22
f 23 25 27
f 24 28 26
f 27 25 29
f 28 30 26
f 27 29 31
f 28 32 30
f 31 29 33
f 32 34 30
f 33 29 35
f 34 36 30
f 33 35 37
f 34 38 36
f 39 40 41
f 42 44 43
f 39 41 45
f 42 46 44
f 45 41 47
f 46 48 44
f 47 41 49
f 48 50 44
f 35 51 52
f 36 54 53
f 35 52 37
f 36 38 54
f 41 55 49
f 44 50 56
f 49 55 57
f 50 58 56
f 57 55 59
f 58 60 56
f 57 59 61
f 58 62 60
f 61 59 51
f 62 53 60
f 51 59 52
f 53 54 60
f 44 40 43
f 44 41 40
f 43 39 42
f 43 40 39
f 42 45 46
f 42 39 45
f 46 47 48
f 46 45 47
f 48 49 50
f 48 47 49
f 50 57 58
f 50 49 57
f 58 61 62
f 58 57 61
f 62 51 53
f 62 61 51
f 53 35 36
f 53 51 35
f 36 29 30
f 36 35 29
f 30 25 26
f 30 29 25
f 26 21 22
f 26 25 21
f 22 17 18
f 22 21 17
f 18 13 14
f 18 17 13
f 14 9 10
f 14 13 9
f 10 3 6
f 10 9 3
f 6 2 5
f 6 3 2
f 5 1 4
f 5 2 1
f 4 7 8
f 4 1 7
f 8 11 12
f 8 7 11
f 12 15 16
f 12 11 15
f 16 19 20
f 16 15 19
f 20 23 24
f 20 19 23
f 24 27 28
f 24 23 27
f 28 31 32
f 28 27 31
f 32 33 34
f 32 31 33
f 34 37 38
f 34 33 37
f 38 52 54
f 38 37 52
f 54 59 60
f 54 52 59
f 60 55 56
f 60 59 55
f 56 41 44
f 56 55 41
