# UIU Floor Marker 10
# Generated for Unity. Front faces toward +Z. Height normalized to 1 Unity unit.
o FloorMarker_10
v 0.123541107 0.369861599 0.075000000
v 0.046077773 0.212352820 0.075000000
v 0.303049473 0.256248709 0.075000000
v 0.123541107 0.369861599 0.000000000
v 0.046077773 0.212352820 0.000000000
v 0.303049473 0.256248709 0.000000000
v 0.248618571 0.467465400 0.075000000
v 0.248618571 0.467465400 0.000000000
v 0.348752840 0.311712456 0.075000000
v 0.348752840 0.311712456 0.000000000
v 0.417282070 0.500000000 0.075000000
v 0.417282070 0.500000000 0.000000000
v 0.417282070 0.330200372 0.075000000
v 0.417282070 0.330200372 0.000000000
v 0.485862942 0.311712456 0.075000000
v 0.485862942 0.311712456 0.000000000
v 0.585480789 0.467465400 0.075000000
v 0.585480789 0.467465400 0.000000000
v 0.531308098 0.256248709 0.075000000
v 0.531308098 0.256248709 0.000000000
v 0.710403326 0.369861599 0.075000000
v 0.710403326 0.369861599 0.000000000
v 0.787866660 0.212352820 0.075000000
v 0.787866660 0.212352820 0.000000000
v 0.556716071 0.155752944 0.075000000
v 0.556716071 0.155752944 0.000000000
v 0.813687771 -0.000309853 0.075000000
v 0.813687771 -0.000309853 0.000000000
v 0.565185396 0.001755836 0.075000000
v 0.565185396 0.001755836 0.000000000
v 0.556612787 -0.154100392 0.075000000
v 0.556612787 -0.154100392 0.000000000
v 0.787866660 -0.212404462 0.075000000
v 0.787866660 -0.212404462 0.000000000
v 0.710403326 -0.369861599 0.075000000
v 0.530894960 -0.256042140 0.075000000
v 0.710403326 -0.369861599 0.000000000
v 0.530894960 -0.256042140 0.000000000
v 0.585480789 -0.467465400 0.075000000
v 0.585480789 -0.467465400 0.000000000
v 0.485449804 -0.312125594 0.075000000
v 0.485449804 -0.312125594 0.000000000
v 0.417282070 -0.500000000 0.075000000
v 0.417282070 -0.500000000 0.000000000
v 0.417282070 -0.330820078 0.075000000
v 0.417282070 -0.330820078 0.000000000
v 0.348752840 -0.312125594 0.075000000
v 0.348752840 -0.312125594 0.000000000
v 0.248618571 -0.467465400 0.075000000
v 0.248618571 -0.467465400 0.000000000
v 0.303049473 -0.256042140 0.075000000
v 0.303049473 -0.256042140 0.000000000
v 0.123541107 -0.369861599 0.075000000
v 0.123541107 -0.369861599 0.000000000
v 0.046077773 -0.212404462 0.075000000
v 0.046077773 -0.212404462 0.000000000
v 0.277331646 -0.154100392 0.075000000
v 0.277331646 -0.154100392 0.000000000
v 0.020256662 -0.000309853 0.075000000
v 0.020256662 -0.000309853 0.000000000
v 0.268759037 0.001755836 0.075000000
v 0.268759037 0.001755836 0.000000000
v 0.277331646 0.155752944 0.075000000
v 0.277331646 0.155752944 0.000000000
v -0.813687771 0.436170213 0.075000000
v -0.813687771 0.266990291 0.075000000
v -0.588321111 0.313468292 0.075000000
v -0.813687771 0.436170213 0.000000000
v -0.813687771 0.266990291 0.000000000
v -0.588321111 0.313468292 0.000000000
v -0.589767094 0.482648213 0.075000000
v -0.589767094 0.482648213 0.000000000
v -0.353452283 0.482648213 0.075000000
v -0.353452283 0.482648213 0.000000000
v -0.353452283 -0.309543483 0.075000000
v -0.353452283 -0.309543483 0.000000000
v -0.133869552 -0.309543483 0.075000000
v -0.133869552 -0.481202231 0.075000000
v -0.133869552 -0.309543483 0.000000000
v -0.133869552 -0.481202231 0.000000000
v -0.807903842 -0.481202231 0.075000000
v -0.807903842 -0.481202231 0.000000000
v -0.588321111 -0.309543483 0.075000000
v -0.588321111 -0.309543483 0.000000000
v -0.807903842 -0.309543483 0.075000000
v -0.807903842 -0.309543483 0.000000000
f 1 2 3
f 4 6 5
f 1 3 7
f 4 8 6
f 7 3 9
f 8 10 6
f 7 9 11
f 8 12 10
f 11 9 13
f 12 14 10
f 11 13 15
f 12 16 14
f 11 15 17
f 12 18 16
f 17 15 19
f 18 20 16
f 17 19 21
f 18 22 20
f 21 19 23
f 22 24 20
f 23 19 25
f 24 26 20
f 23 25 27
f 24 28 26
f 27 25 29
f 28 30 26
f 27 29 31
f 28 32 30
f 27 31 33
f 28 34 32
f 35 33 36
f 37 38 34
f 35 36 39
f 37 40 38
f 39 36 41
f 40 42 38
f 39 41 43
f 40 44 42
f 43 41 45
f 44 46 42
f 43 45 47
f 44 48 46
f 43 47 49
f 44 50 48
f 49 47 51
f 50 52 48
f 49 51 53
f 50 54 52
f 53 51 55
f 54 56 52
f 55 51 57
f 56 58 52
f 55 57 59
f 56 60 58
f 59 57 61
f 60 62 58
f 59 61 63
f 60 64 62
f 59 63 2
f 60 5 64
f 2 63 3
f 5 6 64
f 31 36 33
f 32 34 38
f 34 35 37
f 34 33 35
f 37 39 40
f 37 35 39
f 40 43 44
f 40 39 43
f 44 49 50
f 44 43 49
f 50 53 54
f 50 49 53
f 54 55 56
f 54 53 55
f 56 59 60
f 56 55 59
f 60 2 5
f 60 59 2
f 5 1 4
f 5 2 1
f 4 7 8
f 4 1 7
f 8 11 12
f 8 7 11
f 12 17 18
f 12 11 17
f 18 21 22
f 18 17 21
f 22 23 24
f 22 21 23
f 24 27 28
f 24 23 27
f 28 33 34
f 28 27 33
f 26 20 19
f 26 19 25
f 20 16 15
f 20 15 19
f 16 14 13
f 16 13 15
f 14 10 9
f 14 9 13
f 10 6 3
f 10 3 9
f 6 64 63
f 6 63 3
f 64 62 61
f 64 61 63
f 62 58 57
f 62 57 61
f 58 52 51
f 58 51 57
f 52 48 47
f 52 47 51
f 48 46 45
f 48 45 47
f 46 42 41
f 46 41 45
f 42 38 36
f 42 36 41
f 38 32 31
f 38 31 36
f 32 30 29
f 32 29 31
f 30 26 25
f 30 25 29
f 65 66 67
f 68 70 69
f 65 67 71
f 68 72 70
f 71 67 73
f 72 74 70
f 73 67 75
f 74 76 70
f 77 75 78
f 79 80 76
f 78 75 81
f 80 82 76
f 81 75 83
f 82 84 76
f 81 83 85
f 82 86 84
f 67 83 75
f 70 76 84
f 84 67 70
f 84 83 67
f 70 66 69
f 70 67 66
f 69 65 68
f 69 66 65
f 68 71 72
f 68 65 71
f 72 73 74
f 72 71 73
f 74 75 76
f 74 73 75
f 76 77 79
f 76 75 77
f 79 78 80
f 79 77 78
f 80 81 82
f 80 78 81
f 82 85 86
f 82 81 85
f 86 83 84
f 86 85 83
