# https://github.com/mikedh/trimesh

o FloorMarker_7
v -0.37676811 0.50000000 0.07500000
v -0.37676811 0.31033005 0.07500000
v 0.10480069 0.31033005 0.07500000
v -0.37676811 0.50000000 0.00000000
v -0.37676811 0.31033005 0.00000000
v 0.10480069 0.31033005 0.00000000
v 0.37676811 0.50000000 0.07500000
v 0.37676811 0.50000000 0.00000000
v 0.37676811 0.35469353 0.07500000
v 0.37676811 0.35469353 0.00000000
v -0.01307330 -0.50000000 0.07500000
v -0.01307330 -0.50000000 0.00000000
v -0.26425204 -0.50000000 0.00000000
v -0.26425204 -0.50000000 0.07500000
f 1 2 3
f 4 6 5
f 1 3 7
f 4 8 6
f 7 3 9
f 8 10 6
f 11 9 3
f 12 6 10
f 4 7 8
f 4 1 7
f 8 9 10
f 8 7 9
f 10 11 12
f 10 9 11
f 12 14 13
f 12 11 14
f 13 3 6
f 13 14 3
f 6 2 5
f 6 3 2
f 5 1 4
f 5 2 1
f 14 11 3
f 6 12 13

