# UIU Floor Marker 1
# Generated for Unity. Front faces toward +Z. Height normalized to 1 Unity unit.
o FloorMarker_1
v -0.352657523 0.451778826 0.075000000
v -0.352657523 0.276253751 0.075000000
v -0.118838405 0.324474925 0.075000000
v -0.352657523 0.451778826 0.000000000
v -0.352657523 0.276253751 0.000000000
v -0.118838405 0.324474925 0.000000000
v -0.120338620 0.500000000 0.075000000
v -0.120338620 0.500000000 0.000000000
v 0.124839263 0.500000000 0.075000000
v 0.124839263 0.500000000 0.000000000
v 0.124839263 -0.321903129 0.075000000
v 0.124839263 -0.321903129 0.000000000
v 0.352657523 -0.321903129 0.075000000
v 0.352657523 -0.500000000 0.075000000
v 0.352657523 -0.321903129 0.000000000
v 0.352657523 -0.500000000 0.000000000
v -0.118838405 -0.321903129 0.075000000
v -0.118838405 -0.321903129 0.000000000
v -0.346656665 -0.500000000 0.075000000
v -0.346656665 -0.500000000 0.000000000
v -0.346656665 -0.321903129 0.075000000
v -0.346656665 -0.321903129 0.000000000
f 1 2 3
f 4 6 5
f 1 3 7
f 4 8 6
f 7 3 9
f 8 10 6
f 9 3 11
f 10 12 6
f 13 11 14
f 15 16 12
f 14 11 17
f 16 18 12
f 14 17 19
f 16 20 18
f 19 17 21
f 20 22 18
f 3 17 11
f 6 12 18
f 22 17 18
f 22 21 17
f 18 3 6
f 18 17 3
f 6 2 5
f 6 3 2
f 5 1 4
f 5 2 1
f 4 7 8
f 4 1 7
f 8 9 10
f 8 7 9
f 10 11 12
f 10 9 11
f 12 13 15
f 12 11 13
f 15 14 16
f 15 13 14
f 16 19 20
f 16 14 19
f 20 21 22
f 20 19 21
