# UIU Floor Marker 5
mtllib FloorMarker_5.mtl
o FloorMarker_5
usemtl ChromeSilver
v -0.098477 0.250000 0.000000
v -0.140126 0.006604 0.000000
v -0.049052 0.072752 0.000000
v -0.033074 0.166170 0.000000
v 0.149606 0.250000 0.000000
v 0.094749 0.166170 0.000000
v 0.149606 0.210481 0.000000
v 0.166755 -0.057187 0.000000
v 0.161643 -0.027575 0.000000
v 0.071860 -0.059051 0.000000
v 0.073232 -0.077226 0.000000
v 0.167395 -0.072752 0.000000
v 0.166516 -0.092079 0.000000
v 0.114668 -0.200788 0.000000
v 0.126351 -0.188545 0.000000
v 0.056961 -0.138501 0.000000
v 0.051928 -0.145185 0.000000
v 0.101712 -0.211806 0.000000
v 0.046243 -0.151237 0.000000
v 0.072207 -0.229968 0.000000
v 0.032715 -0.161303 0.000000
v 0.055656 -0.237111 0.000000
v 0.024872 -0.165317 0.000000
v 0.038160 -0.242750 0.000000
v 0.016311 -0.168533 0.000000
v -0.002969 -0.172208 0.000000
v 0.000772 -0.249194 0.000000
v -0.013688 -0.172667 0.000000
v -0.019120 -0.250000 0.000000
v -0.033500 -0.171309 0.000000
v -0.042155 -0.248748 0.000000
v -0.064178 -0.244994 0.000000
v -0.050117 -0.167235 0.000000
v -0.084896 -0.239242 0.000000
v -0.064204 -0.161429 0.000000
v -0.104229 -0.231785 0.000000
v -0.076427 -0.155092 0.000000
v -0.122124 -0.222838 0.000000
v -0.087026 -0.148780 0.000000
v -0.138741 -0.212612 0.000000
v -0.138421 -0.150192 0.000000
v -0.153893 -0.201401 0.000000
v -0.167395 -0.189710 0.000000
v -0.081860 -0.009693 0.000000
v -0.064471 -0.004054 0.000000
v -0.029852 0.002390 0.000000
v -0.034033 0.075415 0.000000
v 0.108596 0.166968 0.000000
v 0.120100 0.169365 0.000000
v 0.148887 0.201055 0.000000
v 0.157169 -0.013528 0.000000
v 0.064660 -0.035934 0.000000
v 0.071900 -0.096719 0.000000
v 0.159486 -0.128136 0.000000
v 0.067906 -0.114934 0.000000
v 0.153334 -0.144866 0.000000
v 0.145685 -0.160584 0.000000
v 0.064950 -0.123376 0.000000
v -0.096453 -0.143055 0.000000
v -0.105401 -0.138901 0.000000
v -0.114561 -0.137516 0.000000
v -0.133455 -0.144646 0.000000
v -0.121525 -0.138308 0.000000
v -0.012622 0.003196 0.000000
v -0.019653 0.077226 0.000000
v -0.005699 0.078265 0.000000
v 0.007110 0.001884 0.000000
v 0.007829 0.078611 0.000000
v 0.026703 0.077872 0.000000
v 0.032016 -0.005001 0.000000
v 0.061055 0.071960 0.000000
v 0.076534 0.066787 0.000000
v 0.045490 -0.012870 0.000000
v 0.090847 0.060383 0.000000
v 0.129580 0.173333 0.000000
v 0.137143 0.178632 0.000000
v 0.146730 0.192586 0.000000
v 0.151423 -0.000133 0.000000
v 0.136138 0.023940 0.000000
v 0.056432 -0.023284 0.000000
v 0.051289 -0.017789 0.000000
v 0.115879 0.044299 0.000000
v 0.126598 0.034619 0.000000
v 0.142895 0.185103 0.000000
v -0.098477 0.250000 0.000307
v -0.140126 0.006604 0.000307
v -0.049052 0.072752 0.000307
v -0.033074 0.166170 0.000307
v 0.149606 0.250000 0.000307
v 0.094749 0.166170 0.000307
v 0.149606 0.210481 0.000307
v 0.166755 -0.057187 0.000307
v 0.161643 -0.027575 0.000307
v 0.071860 -0.059051 0.000307
v 0.073232 -0.077226 0.000307
v 0.167395 -0.072752 0.000307
v 0.166516 -0.092079 0.000307
v 0.114668 -0.200788 0.000307
v 0.126351 -0.188545 0.000307
v 0.056961 -0.138501 0.000307
v 0.051928 -0.145185 0.000307
v 0.101712 -0.211806 0.000307
v 0.046243 -0.151237 0.000307
v 0.072207 -0.229968 0.000307
v 0.032715 -0.161303 0.000307
v 0.055656 -0.237111 0.000307
v 0.024872 -0.165317 0.000307
v 0.038160 -0.242750 0.000307
v 0.016311 -0.168533 0.000307
v -0.002969 -0.172208 0.000307
v 0.000772 -0.249194 0.000307
v -0.013688 -0.172667 0.000307
v -0.019120 -0.250000 0.000307
v -0.033500 -0.171309 0.000307
v -0.042155 -0.248748 0.000307
v -0.064178 -0.244994 0.000307
v -0.050117 -0.167235 0.000307
v -0.084896 -0.239242 0.000307
v -0.064204 -0.161429 0.000307
v -0.104229 -0.231785 0.000307
v -0.076427 -0.155092 0.000307
v -0.122124 -0.222838 0.000307
v -0.087026 -0.148780 0.000307
v -0.138741 -0.212612 0.000307
v -0.138421 -0.150192 0.000307
v -0.153893 -0.201401 0.000307
v -0.167395 -0.189710 0.000307
v -0.081860 -0.009693 0.000307
v -0.064471 -0.004054 0.000307
v -0.029852 0.002390 0.000307
v -0.034033 0.075415 0.000307
v 0.108596 0.166968 0.000307
v 0.120100 0.169365 0.000307
v 0.148887 0.201055 0.000307
v 0.157169 -0.013528 0.000307
v 0.064660 -0.035934 0.000307
v 0.071900 -0.096719 0.000307
v 0.159486 -0.128136 0.000307
v 0.067906 -0.114934 0.000307
v 0.153334 -0.144866 0.000307
v 0.145685 -0.160584 0.000307
v 0.064950 -0.123376 0.000307
v -0.096453 -0.143055 0.000307
v -0.105401 -0.138901 0.000307
v -0.114561 -0.137516 0.000307
v -0.133455 -0.144646 0.000307
v -0.121525 -0.138308 0.000307
v -0.012622 0.003196 0.000307
v -0.019653 0.077226 0.000307
v -0.005699 0.078265 0.000307
v 0.007110 0.001884 0.000307
v 0.007829 0.078611 0.000307
v 0.026703 0.077872 0.000307
v 0.032016 -0.005001 0.000307
v 0.061055 0.071960 0.000307
v 0.076534 0.066787 0.000307
v 0.045490 -0.012870 0.000307
v 0.090847 0.060383 0.000307
v 0.129580 0.173333 0.000307
v 0.137143 0.178632 0.000307
v 0.146730 0.192586 0.000307
v 0.151423 -0.000133 0.000307
v 0.136138 0.023940 0.000307
v 0.056432 -0.023284 0.000307
v 0.051289 -0.017789 0.000307
v 0.115879 0.044299 0.000307
v 0.126598 0.034619 0.000307
v 0.142895 0.185103 0.000307
f 1 3 2
f 85 86 87
f 1 4 3
f 85 87 88
f 1 5 4
f 85 88 89
f 5 6 4
f 89 88 90
f 5 7 6
f 89 90 91
f 8 10 9
f 92 93 94
f 8 11 10
f 92 94 95
f 8 12 11
f 92 95 96
f 12 13 11
f 96 95 97
f 14 16 15
f 98 99 100
f 14 17 16
f 98 100 101
f 14 18 17
f 98 101 102
f 18 19 17
f 102 101 103
f 18 20 19
f 102 103 104
f 20 21 19
f 104 103 105
f 20 22 21
f 104 105 106
f 22 23 21
f 106 105 107
f 22 24 23
f 106 107 108
f 24 25 23
f 108 107 109
f 24 26 25
f 108 109 110
f 24 27 26
f 108 110 111
f 27 28 26
f 111 110 112
f 27 29 28
f 111 112 113
f 29 30 28
f 113 112 114
f 29 31 30
f 113 114 115
f 31 32 30
f 115 114 116
f 32 33 30
f 116 114 117
f 32 34 33
f 116 117 118
f 34 35 33
f 118 117 119
f 34 36 35
f 118 119 120
f 36 37 35
f 120 119 121
f 36 38 37
f 120 121 122
f 38 39 37
f 122 121 123
f 38 40 39
f 122 123 124
f 40 41 39
f 124 123 125
f 40 42 41
f 124 125 126
f 42 43 41
f 126 125 127
f 2 3 44
f 86 128 87
f 3 45 44
f 87 128 129
f 3 46 45
f 87 129 130
f 3 47 46
f 87 130 131
f 6 7 48
f 90 132 91
f 7 49 48
f 91 132 133
f 7 50 49
f 91 133 134
f 9 10 51
f 93 135 94
f 10 52 51
f 94 135 136
f 11 13 53
f 95 137 97
f 13 54 53
f 97 137 138
f 54 55 53
f 138 137 139
f 54 56 55
f 138 139 140
f 56 57 55
f 140 139 141
f 57 58 55
f 141 139 142
f 57 15 58
f 141 142 99
f 15 16 58
f 99 142 100
f 39 41 59
f 123 143 125
f 41 60 59
f 125 143 144
f 41 61 60
f 125 144 145
f 41 62 61
f 125 145 146
f 62 63 61
f 146 145 147
f 46 47 64
f 130 148 131
f 47 65 64
f 131 148 149
f 65 66 64
f 149 148 150
f 66 67 64
f 150 148 151
f 66 68 67
f 150 151 152
f 68 69 67
f 152 151 153
f 69 70 67
f 153 151 154
f 69 71 70
f 153 154 155
f 71 72 70
f 155 154 156
f 72 73 70
f 156 154 157
f 72 74 73
f 156 157 158
f 49 50 75
f 133 159 134
f 50 76 75
f 134 159 160
f 50 77 76
f 134 160 161
f 51 52 78
f 135 162 136
f 52 79 78
f 136 162 163
f 52 80 79
f 136 163 164
f 73 74 81
f 157 165 158
f 74 82 81
f 158 165 166
f 82 80 81
f 166 165 164
f 82 83 80
f 166 164 167
f 76 77 84
f 160 168 161
f 79 80 83
f 163 167 164
f 3 47 131
f 3 131 87
f 47 65 149
f 47 149 131
f 65 66 150
f 65 150 149
f 66 68 152
f 66 152 150
f 68 69 153
f 68 153 152
f 69 71 155
f 69 155 153
f 71 72 156
f 71 156 155
f 72 74 158
f 72 158 156
f 74 82 166
f 74 166 158
f 82 83 167
f 82 167 166
f 83 79 163
f 83 163 167
f 79 78 162
f 79 162 163
f 78 51 135
f 78 135 162
f 51 9 93
f 51 93 135
f 9 8 92
f 9 92 93
f 8 12 96
f 8 96 92
f 12 13 97
f 12 97 96
f 13 54 138
f 13 138 97
f 54 56 140
f 54 140 138
f 56 57 141
f 56 141 140
f 57 15 99
f 57 99 141
f 15 14 98
f 15 98 99
f 14 18 102
f 14 102 98
f 18 20 104
f 18 104 102
f 20 22 106
f 20 106 104
f 22 24 108
f 22 108 106
f 24 27 111
f 24 111 108
f 27 29 113
f 27 113 111
f 29 31 115
f 29 115 113
f 31 32 116
f 31 116 115
f 32 34 118
f 32 118 116
f 34 36 120
f 34 120 118
f 36 38 122
f 36 122 120
f 38 40 124
f 38 124 122
f 40 42 126
f 40 126 124
f 42 43 127
f 42 127 126
f 43 41 125
f 43 125 127
f 41 62 146
f 41 146 125
f 62 63 147
f 62 147 146
f 63 61 145
f 63 145 147
f 61 60 144
f 61 144 145
f 60 59 143
f 60 143 144
f 59 39 123
f 59 123 143
f 39 37 121
f 39 121 123
f 37 35 119
f 37 119 121
f 35 33 117
f 35 117 119
f 33 30 114
f 33 114 117
f 30 28 112
f 30 112 114
f 28 26 110
f 28 110 112
f 26 25 109
f 26 109 110
f 25 23 107
f 25 107 109
f 23 21 105
f 23 105 107
f 21 19 103
f 21 103 105
f 19 17 101
f 19 101 103
f 17 16 100
f 17 100 101
f 16 58 142
f 16 142 100
f 58 55 139
f 58 139 142
f 55 53 137
f 55 137 139
f 53 11 95
f 53 95 137
f 11 10 94
f 11 94 95
f 10 52 136
f 10 136 94
f 52 80 164
f 52 164 136
f 80 81 165
f 80 165 164
f 81 73 157
f 81 157 165
f 73 70 154
f 73 154 157
f 70 67 151
f 70 151 154
f 67 64 148
f 67 148 151
f 64 46 130
f 64 130 148
f 46 45 129
f 46 129 130
f 45 44 128
f 45 128 129
f 44 2 86
f 44 86 128
f 2 1 85
f 2 85 86
f 1 5 89
f 1 89 85
f 5 7 91
f 5 91 89
f 7 50 134
f 7 134 91
f 50 77 161
f 50 161 134
f 77 84 168
f 77 168 161
f 84 76 160
f 84 160 168
f 76 75 159
f 76 159 160
f 75 49 133
f 75 133 159
f 49 48 132
f 49 132 133
f 48 6 90
f 48 90 132
f 6 4 88
f 6 88 90
f 4 3 87
f 4 87 88
