# UIU Floor Marker 3
mtllib FloorMarker_3.mtl
o FloorMarker_3
usemtl ChromeSilver
v -0.110656 0.204801 0.000000
v -0.129202 0.182409 0.000000
v -0.053214 0.142729 0.000000
v -0.046154 0.151291 0.000000
v -0.100000 0.214278 0.000000
v -0.088494 0.222669 0.000000
v -0.037829 0.158641 0.000000
v -0.063152 0.236051 0.000000
v -0.028293 0.164673 0.000000
v -0.049315 0.241043 0.000000
v -0.017597 0.169283 0.000000
v -0.034760 0.244962 0.000000
v -0.005769 0.172208 0.000000
v -0.003991 0.249440 0.000000
v 0.007165 0.173182 0.000000
v 0.012223 0.250000 0.000000
v 0.021668 0.172129 0.000000
v 0.029314 0.249381 0.000000
v 0.060768 0.244428 0.000000
v 0.045377 0.163699 0.000000
v 0.075132 0.240095 0.000000
v 0.088501 0.234681 0.000000
v 0.054584 0.156322 0.000000
v 0.111999 0.221088 0.000000
v 0.122129 0.212908 0.000000
v 0.061868 0.146944 0.000000
v 0.131204 0.203958 0.000000
v 0.145956 0.183884 0.000000
v 0.151633 0.172761 0.000000
v 0.156151 0.161110 0.000000
v 0.070192 0.122497 0.000000
v 0.161315 0.136506 0.000000
v 0.161960 0.123551 0.000000
v 0.071233 0.107429 0.000000
v 0.160722 0.101739 0.000000
v 0.171128 -0.097945 0.000000
v 0.169810 -0.077680 0.000000
v 0.078398 -0.101001 0.000000
v 0.170258 -0.116096 0.000000
v 0.131178 -0.201429 0.000000
v 0.149723 -0.177562 0.000000
v 0.067360 -0.139120 0.000000
v 0.058799 -0.150105 0.000000
v 0.120126 -0.211644 0.000000
v 0.108055 -0.220634 0.000000
v 0.047813 -0.159378 0.000000
v 0.081026 -0.235017 0.000000
v 0.034457 -0.166754 0.000000
v 0.066070 -0.240411 0.000000
v 0.050454 -0.244606 0.000000
v 0.026916 -0.169567 0.000000
v 0.018157 -0.249401 0.000000
v 0.009899 -0.172781 0.000000
v 0.001475 -0.250000 0.000000
v 0.000421 -0.173182 0.000000
v -0.015865 -0.249499 0.000000
v -0.014199 -0.172076 0.000000
v -0.047425 -0.245495 0.000000
v -0.027081 -0.168757 0.000000
v -0.061644 -0.241992 0.000000
v -0.038383 -0.163462 0.000000
v -0.074881 -0.237428 0.000000
v -0.048472 -0.156428 0.000000
v -0.098907 -0.225257 0.000000
v -0.109694 -0.217650 0.000000
v -0.057403 -0.147813 0.000000
v -0.119659 -0.209023 0.000000
v -0.065437 -0.137777 0.000000
v -0.137414 -0.188685 0.000000
v -0.145205 -0.176976 0.000000
v -0.072813 -0.126449 0.000000
v -0.152397 -0.164239 0.000000
v -0.130032 -0.103003 0.000000
v -0.165358 -0.135682 0.000000
v -0.171128 -0.119863 0.000000
v -0.157323 0.106691 0.000000
v -0.108430 0.097945 0.000000
v -0.154044 0.124052 0.000000
v -0.143928 0.155453 0.000000
v -0.062592 0.122919 0.000000
v -0.058720 0.133246 0.000000
v -0.137092 0.169494 0.000000
v 0.070179 0.092835 0.000000
v 0.157007 0.082666 0.000000
v 0.159273 -0.042486 0.000000
v 0.077634 -0.084958 0.000000
v 0.077160 -0.113830 0.000000
v 0.163303 -0.149078 0.000000
v 0.073446 -0.126818 0.000000
v 0.157218 -0.163909 0.000000
v -0.079768 -0.114173 0.000000
v -0.122063 -0.100244 0.000000
v -0.106994 -0.098400 0.000000
v -0.099407 0.096957 0.000000
v -0.066037 0.115194 0.000000
v 0.020969 0.043361 0.000000
v -0.001317 0.039568 0.000000
v 0.003741 -0.028451 0.000000
v 0.028978 -0.032403 0.000000
v 0.030236 0.046141 0.000000
v 0.086828 0.014384 0.000000
v 0.045568 0.053201 0.000000
v 0.067018 0.079399 0.000000
v 0.142571 0.051791 0.000000
v 0.150975 0.066096 0.000000
v 0.138198 -0.014403 0.000000
v 0.073321 -0.063955 0.000000
v 0.075342 -0.070548 0.000000
v 0.039021 -0.035267 0.000000
v 0.055196 -0.042696 0.000000
v 0.061328 -0.047260 0.000000
v 0.106586 0.006566 0.000000
v 0.103925 0.021154 0.000000
v 0.056783 0.062289 0.000000
v 0.051633 0.057482 0.000000
v 0.064476 0.073248 0.000000
v 0.118967 0.029452 0.000000
v 0.131876 0.039621 0.000000
v 0.066313 -0.052312 0.000000
v -0.029189 -0.027134 0.000000
v -0.029189 0.038303 0.000000
v -0.084760 0.098222 0.000000
v -0.074308 0.103971 0.000000
v -0.079136 0.100474 0.000000
v -0.083318 -0.108818 0.000000
v -0.093381 -0.101390 0.000000
v -0.099895 -0.099315 0.000000
v -0.110656 0.204801 0.000303
v -0.129202 0.182409 0.000303
v -0.053214 0.142729 0.000303
v -0.046154 0.151291 0.000303
v -0.100000 0.214278 0.000303
v -0.088494 0.222669 0.000303
v -0.037829 0.158641 0.000303
v -0.063152 0.236051 0.000303
v -0.028293 0.164673 0.000303
v -0.049315 0.241043 0.000303
v -0.017597 0.169283 0.000303
v -0.034760 0.244962 0.000303
v -0.005769 0.172208 0.000303
v -0.003991 0.249440 0.000303
v 0.007165 0.173182 0.000303
v 0.012223 0.250000 0.000303
v 0.021668 0.172129 0.000303
v 0.029314 0.249381 0.000303
v 0.060768 0.244428 0.000303
v 0.045377 0.163699 0.000303
v 0.075132 0.240095 0.000303
v 0.088501 0.234681 0.000303
v 0.054584 0.156322 0.000303
v 0.111999 0.221088 0.000303
v 0.122129 0.212908 0.000303
v 0.061868 0.146944 0.000303
v 0.131204 0.203958 0.000303
v 0.145956 0.183884 0.000303
v 0.151633 0.172761 0.000303
v 0.156151 0.161110 0.000303
v 0.070192 0.122497 0.000303
v 0.161315 0.136506 0.000303
v 0.161960 0.123551 0.000303
v 0.071233 0.107429 0.000303
v 0.160722 0.101739 0.000303
v 0.171128 -0.097945 0.000303
v 0.169810 -0.077680 0.000303
v 0.078398 -0.101001 0.000303
v 0.170258 -0.116096 0.000303
v 0.131178 -0.201429 0.000303
v 0.149723 -0.177562 0.000303
v 0.067360 -0.139120 0.000303
v 0.058799 -0.150105 0.000303
v 0.120126 -0.211644 0.000303
v 0.108055 -0.220634 0.000303
v 0.047813 -0.159378 0.000303
v 0.081026 -0.235017 0.000303
v 0.034457 -0.166754 0.000303
v 0.066070 -0.240411 0.000303
v 0.050454 -0.244606 0.000303
v 0.026916 -0.169567 0.000303
v 0.018157 -0.249401 0.000303
v 0.009899 -0.172781 0.000303
v 0.001475 -0.250000 0.000303
v 0.000421 -0.173182 0.000303
v -0.015865 -0.249499 0.000303
v -0.014199 -0.172076 0.000303
v -0.047425 -0.245495 0.000303
v -0.027081 -0.168757 0.000303
v -0.061644 -0.241992 0.000303
v -0.038383 -0.163462 0.000303
v -0.074881 -0.237428 0.000303
v -0.048472 -0.156428 0.000303
v -0.098907 -0.225257 0.000303
v -0.109694 -0.217650 0.000303
v -0.057403 -0.147813 0.000303
v -0.119659 -0.209023 0.000303
v -0.065437 -0.137777 0.000303
v -0.137414 -0.188685 0.000303
v -0.145205 -0.176976 0.000303
v -0.072813 -0.126449 0.000303
v -0.152397 -0.164239 0.000303
v -0.130032 -0.103003 0.000303
v -0.165358 -0.135682 0.000303
v -0.171128 -0.119863 0.000303
v -0.157323 0.106691 0.000303
v -0.108430 0.097945 0.000303
v -0.154044 0.124052 0.000303
v -0.143928 0.155453 0.000303
v -0.062592 0.122919 0.000303
v -0.058720 0.133246 0.000303
v -0.137092 0.169494 0.000303
v 0.070179 0.092835 0.000303
v 0.157007 0.082666 0.000303
v 0.159273 -0.042486 0.000303
v 0.077634 -0.084958 0.000303
v 0.077160 -0.113830 0.000303
v 0.163303 -0.149078 0.000303
v 0.073446 -0.126818 0.000303
v 0.157218 -0.163909 0.000303
v -0.079768 -0.114173 0.000303
v -0.122063 -0.100244 0.000303
v -0.106994 -0.098400 0.000303
v -0.099407 0.096957 0.000303
v -0.066037 0.115194 0.000303
v 0.020969 0.043361 0.000303
v -0.001317 0.039568 0.000303
v 0.003741 -0.028451 0.000303
v 0.028978 -0.032403 0.000303
v 0.030236 0.046141 0.000303
v 0.086828 0.014384 0.000303
v 0.045568 0.053201 0.000303
v 0.067018 0.079399 0.000303
v 0.142571 0.051791 0.000303
v 0.150975 0.066096 0.000303
v 0.138198 -0.014403 0.000303
v 0.073321 -0.063955 0.000303
v 0.075342 -0.070548 0.000303
v 0.039021 -0.035267 0.000303
v 0.055196 -0.042696 0.000303
v 0.061328 -0.047260 0.000303
v 0.106586 0.006566 0.000303
v 0.103925 0.021154 0.000303
v 0.056783 0.062289 0.000303
v 0.051633 0.057482 0.000303
v 0.064476 0.073248 0.000303
v 0.118967 0.029452 0.000303
v 0.131876 0.039621 0.000303
v 0.066313 -0.052312 0.000303
v -0.029189 -0.027134 0.000303
v -0.029189 0.038303 0.000303
v -0.084760 0.098222 0.000303
v -0.074308 0.103971 0.000303
v -0.079136 0.100474 0.000303
v -0.083318 -0.108818 0.000303
v -0.093381 -0.101390 0.000303
v -0.099895 -0.099315 0.000303
f 1 3 2
f 128 129 130
f 1 4 3
f 128 130 131
f 1 5 4
f 128 131 132
f 5 6 4
f 132 131 133
f 6 7 4
f 133 131 134
f 6 8 7
f 133 134 135
f 8 9 7
f 135 134 136
f 8 10 9
f 135 136 137
f 10 11 9
f 137 136 138
f 10 12 11
f 137 138 139
f 12 13 11
f 139 138 140
f 12 14 13
f 139 140 141
f 14 15 13
f 141 140 142
f 14 16 15
f 141 142 143
f 16 17 15
f 143 142 144
f 16 18 17
f 143 144 145
f 18 19 17
f 145 144 146
f 19 20 17
f 146 144 147
f 19 21 20
f 146 147 148
f 21 22 20
f 148 147 149
f 22 23 20
f 149 147 150
f 22 24 23
f 149 150 151
f 24 25 23
f 151 150 152
f 25 26 23
f 152 150 153
f 25 27 26
f 152 153 154
f 27 28 26
f 154 153 155
f 28 29 26
f 155 153 156
f 29 30 26
f 156 153 157
f 30 31 26
f 157 153 158
f 30 32 31
f 157 158 159
f 32 33 31
f 159 158 160
f 33 34 31
f 160 158 161
f 33 35 34
f 160 161 162
f 36 38 37
f 163 164 165
f 36 39 38
f 163 165 166
f 40 42 41
f 167 168 169
f 40 43 42
f 167 169 170
f 40 44 43
f 167 170 171
f 44 45 43
f 171 170 172
f 45 46 43
f 172 170 173
f 45 47 46
f 172 173 174
f 47 48 46
f 174 173 175
f 47 49 48
f 174 175 176
f 49 50 48
f 176 175 177
f 50 51 48
f 177 175 178
f 50 52 51
f 177 178 179
f 52 53 51
f 179 178 180
f 52 54 53
f 179 180 181
f 54 55 53
f 181 180 182
f 54 56 55
f 181 182 183
f 56 57 55
f 183 182 184
f 56 58 57
f 183 184 185
f 58 59 57
f 185 184 186
f 58 60 59
f 185 186 187
f 60 61 59
f 187 186 188
f 60 62 61
f 187 188 189
f 62 63 61
f 189 188 190
f 62 64 63
f 189 190 191
f 64 65 63
f 191 190 192
f 65 66 63
f 192 190 193
f 65 67 66
f 192 193 194
f 67 68 66
f 194 193 195
f 67 69 68
f 194 195 196
f 69 70 68
f 196 195 197
f 70 71 68
f 197 195 198
f 70 72 71
f 197 198 199
f 72 73 71
f 199 198 200
f 72 74 73
f 199 200 201
f 74 75 73
f 201 200 202
f 76 78 77
f 203 204 205
f 78 79 77
f 205 204 206
f 79 80 77
f 206 204 207
f 79 81 80
f 206 207 208
f 79 82 81
f 206 208 209
f 82 2 81
f 209 208 129
f 2 3 81
f 129 208 130
f 34 84 83
f 161 210 211
f 34 35 84
f 161 211 162
f 37 86 85
f 164 212 213
f 37 38 86
f 164 213 165
f 38 39 87
f 165 214 166
f 39 88 87
f 166 214 215
f 88 89 87
f 215 214 216
f 88 90 89
f 215 216 217
f 90 41 89
f 217 216 168
f 41 42 89
f 168 216 169
f 71 92 91
f 198 218 219
f 71 73 92
f 198 219 200
f 92 93 91
f 219 218 220
f 77 80 94
f 204 221 207
f 80 95 94
f 207 221 222
f 96 98 97
f 223 224 225
f 96 99 98
f 223 225 226
f 96 100 99
f 223 226 227
f 100 101 99
f 227 226 228
f 100 102 101
f 227 228 229
f 83 104 103
f 210 230 231
f 83 105 104
f 210 231 232
f 83 84 105
f 210 232 211
f 85 107 106
f 212 233 234
f 85 108 107
f 212 234 235
f 85 86 108
f 212 235 213
f 99 101 109
f 226 236 228
f 101 110 109
f 228 236 237
f 101 111 110
f 228 237 238
f 101 112 111
f 228 238 239
f 101 114 113
f 228 240 241
f 101 115 114
f 228 241 242
f 101 102 115
f 228 242 229
f 103 117 116
f 230 243 244
f 103 118 117
f 230 244 245
f 103 104 118
f 230 245 231
f 106 119 112
f 233 239 246
f 106 107 119
f 233 246 234
f 111 112 119
f 238 246 239
f 113 116 117
f 240 244 243
f 113 114 116
f 240 243 241
f 98 120 97
f 225 224 247
f 120 121 97
f 247 224 248
f 94 95 122
f 221 249 222
f 95 123 122
f 222 249 250
f 123 124 122
f 250 249 251
f 91 126 125
f 218 252 253
f 91 127 126
f 218 253 254
f 91 93 127
f 218 254 220
f 76 78 205
f 76 205 203
f 78 79 206
f 78 206 205
f 79 82 209
f 79 209 206
f 82 2 129
f 82 129 209
f 2 1 128
f 2 128 129
f 1 5 132
f 1 132 128
f 5 6 133
f 5 133 132
f 6 8 135
f 6 135 133
f 8 10 137
f 8 137 135
f 10 12 139
f 10 139 137
f 12 14 141
f 12 141 139
f 14 16 143
f 14 143 141
f 16 18 145
f 16 145 143
f 18 19 146
f 18 146 145
f 19 21 148
f 19 148 146
f 21 22 149
f 21 149 148
f 22 24 151
f 22 151 149
f 24 25 152
f 24 152 151
f 25 27 154
f 25 154 152
f 27 28 155
f 27 155 154
f 28 29 156
f 28 156 155
f 29 30 157
f 29 157 156
f 30 32 159
f 30 159 157
f 32 33 160
f 32 160 159
f 33 35 162
f 33 162 160
f 35 84 211
f 35 211 162
f 84 105 232
f 84 232 211
f 105 104 231
f 105 231 232
f 104 118 245
f 104 245 231
f 118 117 244
f 118 244 245
f 117 113 240
f 117 240 244
f 113 101 228
f 113 228 240
f 101 112 239
f 101 239 228
f 112 106 233
f 112 233 239
f 106 85 212
f 106 212 233
f 85 37 164
f 85 164 212
f 37 36 163
f 37 163 164
f 36 39 166
f 36 166 163
f 39 88 215
f 39 215 166
f 88 90 217
f 88 217 215
f 90 41 168
f 90 168 217
f 41 40 167
f 41 167 168
f 40 44 171
f 40 171 167
f 44 45 172
f 44 172 171
f 45 47 174
f 45 174 172
f 47 49 176
f 47 176 174
f 49 50 177
f 49 177 176
f 50 52 179
f 50 179 177
f 52 54 181
f 52 181 179
f 54 56 183
f 54 183 181
f 56 58 185
f 56 185 183
f 58 60 187
f 58 187 185
f 60 62 189
f 60 189 187
f 62 64 191
f 62 191 189
f 64 65 192
f 64 192 191
f 65 67 194
f 65 194 192
f 67 69 196
f 67 196 194
f 69 70 197
f 69 197 196
f 70 72 199
f 70 199 197
f 72 74 201
f 72 201 199
f 74 75 202
f 74 202 201
f 75 73 200
f 75 200 202
f 73 92 219
f 73 219 200
f 92 93 220
f 92 220 219
f 93 127 254
f 93 254 220
f 127 126 253
f 127 253 254
f 126 125 252
f 126 252 253
f 125 91 218
f 125 218 252
f 91 71 198
f 91 198 218
f 71 68 195
f 71 195 198
f 68 66 193
f 68 193 195
f 66 63 190
f 66 190 193
f 63 61 188
f 63 188 190
f 61 59 186
f 61 186 188
f 59 57 184
f 59 184 186
f 57 55 182
f 57 182 184
f 55 53 180
f 55 180 182
f 53 51 178
f 53 178 180
f 51 48 175
f 51 175 178
f 48 46 173
f 48 173 175
f 46 43 170
f 46 170 173
f 43 42 169
f 43 169 170
f 42 89 216
f 42 216 169
f 89 87 214
f 89 214 216
f 87 38 165
f 87 165 214
f 38 86 213
f 38 213 165
f 86 108 235
f 86 235 213
f 108 107 234
f 108 234 235
f 107 119 246
f 107 246 234
f 119 111 238
f 119 238 246
f 111 110 237
f 111 237 238
f 110 109 236
f 110 236 237
f 109 99 226
f 109 226 236
f 99 98 225
f 99 225 226
f 98 120 247
f 98 247 225
f 120 121 248
f 120 248 247
f 121 97 224
f 121 224 248
f 97 96 223
f 97 223 224
f 96 100 227
f 96 227 223
f 100 102 229
f 100 229 227
f 102 115 242
f 102 242 229
f 115 114 241
f 115 241 242
f 114 116 243
f 114 243 241
f 116 103 230
f 116 230 243
f 103 83 210
f 103 210 230
f 83 34 161
f 83 161 210
f 34 31 158
f 34 158 161
f 31 26 153
f 31 153 158
f 26 23 150
f 26 150 153
f 23 20 147
f 23 147 150
f 20 17 144
f 20 144 147
f 17 15 142
f 17 142 144
f 15 13 140
f 15 140 142
f 13 11 138
f 13 138 140
f 11 9 136
f 11 136 138
f 9 7 134
f 9 134 136
f 7 4 131
f 7 131 134
f 4 3 130
f 4 130 131
f 3 81 208
f 3 208 130
f 81 80 207
f 81 207 208
f 80 95 222
f 80 222 207
f 95 123 250
f 95 250 222
f 123 124 251
f 123 251 250
f 124 122 249
f 124 249 251
f 122 94 221
f 122 221 249
f 94 77 204
f 94 204 221
f 77 76 203
f 77 203 204
