# UIU Floor Marker 9
# Generated for Unity. Front faces toward +Z. Height normalized to 1 Unity unit.
o FloorMarker_9
v -0.282833506 0.406308170 0.075000000
v -0.358686660 0.297052740 0.075000000
v -0.135832472 0.247880041 0.075000000
v -0.282833506 0.406308170 0.000000000
v -0.358686660 0.297052740 0.000000000
v -0.135832472 0.247880041 0.000000000
v -0.111168563 0.300827301 0.075000000
v -0.111168563 0.300827301 0.000000000
v -0.164477766 0.476577042 0.075000000
v -0.164477766 0.476577042 0.000000000
v -0.070165460 0.332936918 0.075000000
v -0.070165460 0.332936918 0.000000000
v -0.011685626 0.500000000 0.075000000
v -0.011685626 0.500000000 0.000000000
v -0.012926577 0.343640124 0.075000000
v -0.012926577 0.343640124 0.000000000
v 0.044312306 0.332936918 0.075000000
v 0.044312306 0.332936918 0.000000000
v 0.155791107 0.468148914 0.075000000
v 0.155791107 0.468148914 0.000000000
v 0.085315408 0.300827301 0.075000000
v 0.085315408 0.300827301 0.000000000
v 0.280558428 0.372595657 0.075000000
v 0.280558428 0.372595657 0.000000000
v 0.109979317 0.247880041 0.075000000
v 0.109979317 0.247880041 0.000000000
v 0.358117890 0.219027921 0.075000000
v 0.358117890 0.219027921 0.000000000
v 0.118200620 0.174250259 0.075000000
v 0.118200620 0.174250259 0.000000000
v 0.109979317 0.100051706 0.075000000
v 0.109979317 0.100051706 0.000000000
v 0.383971044 0.012719752 0.075000000
v 0.383971044 0.012719752 0.000000000
v 0.147362978 -0.092140641 0.075000000
v 0.147362978 -0.092140641 0.000000000
v 0.353722854 -0.200930714 0.075000000
v 0.353722854 -0.200930714 0.000000000
v 0.262978283 -0.363288521 0.075000000
v 0.123629783 -0.198655636 0.075000000
v 0.262978283 -0.363288521 0.000000000
v 0.123629783 -0.198655636 0.000000000
v 0.074353671 -0.275387797 0.075000000
v 0.074353671 -0.275387797 0.000000000
v 0.119700103 -0.465822130 0.075000000
v 0.119700103 -0.465822130 0.000000000
v 0.000000000 -0.321613237 0.075000000
v 0.000000000 -0.321613237 0.000000000
v -0.068562565 -0.500000000 0.075000000
v -0.068562565 -0.500000000 0.000000000
v -0.098965874 -0.337021717 0.075000000
v -0.098965874 -0.337021717 0.000000000
v -0.134953464 -0.497466391 0.075000000
v -0.134953464 -0.497466391 0.000000000
v -0.152275078 -0.333557394 0.075000000
v -0.152275078 -0.333557394 0.000000000
v -0.198448811 -0.489865564 0.075000000
v -0.198448811 -0.489865564 0.000000000
v -0.206308170 -0.323164426 0.075000000
v -0.206308170 -0.323164426 0.000000000
v -0.259824199 -0.477404343 0.075000000
v -0.259824199 -0.477404343 0.000000000
v -0.261789038 -0.305791107 0.075000000
v -0.261789038 -0.305791107 0.000000000
v -0.319855222 -0.459875905 0.075000000
v -0.319855222 -0.459875905 0.000000000
v -0.319855222 -0.281385729 0.075000000
v -0.319855222 -0.281385729 0.000000000
v -0.383971044 0.156670114 0.075000000
v -0.361271975 0.029472596 0.075000000
v -0.135832472 0.100051706 0.075000000
v -0.383971044 0.156670114 0.000000000
v -0.361271975 0.029472596 0.000000000
v -0.135832472 0.100051706 0.000000000
v -0.144053775 0.174250259 0.075000000
v -0.144053775 0.174250259 0.000000000
v 0.085315408 0.047052740 0.075000000
v 0.085315408 0.047052740 0.000000000
v 0.044312306 0.015408480 0.075000000
v 0.044312306 0.015408480 0.000000000
v 0.102016546 -0.120372285 0.075000000
v 0.102016546 -0.120372285 0.000000000
v -0.293174767 -0.070423992 0.075000000
v -0.293174767 -0.070423992 0.000000000
v -0.111168563 0.047052740 0.075000000
v -0.111168563 0.047052740 0.000000000
v -0.012926577 0.004860393 0.075000000
v -0.070165460 0.015408480 0.075000000
v -0.054291624 -0.156670114 0.075000000
v -0.012926577 0.004860393 0.000000000
v -0.070165460 0.015408480 0.000000000
v -0.054291624 -0.156670114 0.000000000
v 0.001758014 -0.152637022 0.075000000
v 0.001758014 -0.152637022 0.000000000
v 0.053671148 -0.140537746 0.075000000
v 0.053671148 -0.140537746 0.000000000
v -0.188055843 -0.135108583 0.075000000
v -0.188055843 -0.135108583 0.000000000
f 1 2 3
f 4 6 5
f 1 3 7
f 4 8 6
f 1 7 9
f 4 10 8
f 9 7 11
f 10 12 8
f 9 11 13
f 10 14 12
f 13 11 15
f 14 16 12
f 13 15 17
f 14 18 16
f 13 17 19
f 14 20 18
f 19 17 21
f 20 22 18
f 19 21 23
f 20 24 22
f 23 21 25
f 24 26 22
f 23 25 27
f 24 28 26
f 27 25 29
f 28 30 26
f 27 29 31
f 28 32 30
f 27 31 33
f 28 34 32
f 33 31 35
f 34 36 32
f 33 35 37
f 34 38 36
f 39 37 40
f 41 42 38
f 39 40 43
f 41 44 42
f 39 43 45
f 41 46 44
f 45 43 47
f 46 48 44
f 45 47 49
f 46 50 48
f 49 47 51
f 50 52 48
f 49 51 53
f 50 54 52
f 53 51 55
f 54 56 52
f 53 55 57
f 54 58 56
f 57 55 59
f 58 60 56
f 57 59 61
f 58 62 60
f 61 59 63
f 62 64 60
f 61 63 65
f 62 66 64
f 65 63 67
f 66 68 64
f 69 70 71
f 72 74 73
f 69 71 75
f 72 76 74
f 69 75 2
f 72 5 76
f 2 75 3
f 5 6 76
f 31 77 35
f 32 36 78
f 35 77 79
f 36 80 78
f 35 79 81
f 36 82 80
f 35 40 37
f 36 38 42
f 70 83 71
f 73 74 84
f 71 83 85
f 74 86 84
f 87 88 89
f 90 92 91
f 87 89 93
f 90 94 92
f 87 93 95
f 90 96 94
f 87 95 79
f 90 80 96
f 79 95 81
f 80 82 96
f 89 88 97
f 92 98 91
f 97 88 85
f 98 86 91
f 97 85 83
f 98 84 86
f 68 63 64
f 68 67 63
f 64 59 60
f 64 63 59
f 60 55 56
f 60 59 55
f 56 51 52
f 56 55 51
f 52 47 48
f 52 51 47
f 48 43 44
f 48 47 43
f 44 40 42
f 44 43 40
f 42 35 36
f 42 40 35
f 36 81 82
f 36 35 81
f 82 95 96
f 82 81 95
f 96 93 94
f 96 95 93
f 94 89 92
f 94 93 89
f 92 97 98
f 92 89 97
f 98 83 84
f 98 97 83
f 84 70 73
f 84 83 70
f 73 69 72
f 73 70 69
f 72 2 5
f 72 69 2
f 5 1 4
f 5 2 1
f 4 9 10
f 4 1 9
f 10 13 14
f 10 9 13
f 14 19 20
f 14 13 19
f 20 23 24
f 20 19 23
f 24 27 28
f 24 23 27
f 28 33 34
f 28 27 33
f 34 37 38
f 34 33 37
f 38 39 41
f 38 37 39
f 41 45 46
f 41 39 45
f 46 49 50
f 46 45 49
f 50 53 54
f 50 49 53
f 54 57 58
f 54 53 57
f 58 61 62
f 58 57 61
f 62 65 66
f 62 61 65
f 66 67 68
f 66 65 67
f 80 78 77
f 80 77 79
f 78 32 31
f 78 31 77
f 32 30 29
f 32 29 31
f 30 26 25
f 30 25 29
f 26 22 21
f 26 21 25
f 22 18 17
f 22 17 21
f 18 16 15
f 18 15 17
f 16 12 11
f 16 11 15
f 12 8 7
f 12 7 11
f 8 6 3
f 8 3 7
f 6 76 75
f 6 75 3
f 76 74 71
f 76 71 75
f 74 86 85
f 74 85 71
f 86 91 88
f 86 88 85
f 91 90 87
f 91 87 88
f 90 80 79
f 90 79 87
