# UIU Floor Marker 6
# Generated for Unity. Front faces toward +Z. Height normalized to 1 Unity unit.
o FloorMarker_6
v -0.263288521 0.363288521 0.075000000
v -0.353722854 0.200982420 0.075000000
v -0.123371251 0.198603930 0.075000000
v -0.263288521 0.363288521 0.000000000
v -0.353722854 0.200982420 0.000000000
v -0.123371251 0.198603930 0.000000000
v -0.074250259 0.275180972 0.075000000
v -0.074250259 0.275180972 0.000000000
v -0.120372285 0.465822130 0.075000000
v -0.120372285 0.465822130 0.000000000
v 0.000051706 0.321561531 0.075000000
v 0.000051706 0.321561531 0.000000000
v 0.067218201 0.500000000 0.075000000
v 0.067218201 0.500000000 0.000000000
v 0.098862461 0.337021717 0.075000000
v 0.098862461 0.337021717 0.000000000
v 0.132833506 0.497414685 0.075000000
v 0.132833506 0.497414685 0.000000000
v 0.151189245 0.333557394 0.075000000
v 0.151189245 0.333557394 0.000000000
v 0.196483971 0.489658738 0.075000000
v 0.196483971 0.489658738 0.000000000
v 0.204756980 0.323164426 0.075000000
v 0.204756980 0.323164426 0.000000000
v 0.258841779 0.476732161 0.075000000
v 0.258841779 0.476732161 0.000000000
v 0.260910031 0.305480869 0.075000000
v 0.260910031 0.305480869 0.000000000
v 0.320579111 0.458634953 0.075000000
v 0.320579111 0.458634953 0.000000000
v 0.320579111 0.280144778 0.075000000
v 0.320579111 0.280144778 0.000000000
v 0.383867632 -0.157911065 0.075000000
v 0.361168563 -0.031127198 0.075000000
v 0.135987590 -0.100103413 0.075000000
v 0.383867632 -0.157911065 0.000000000
v 0.361168563 -0.031127198 0.000000000
v 0.135987590 -0.100103413 0.000000000
v 0.144157187 -0.174250259 0.075000000
v 0.144157187 -0.174250259 0.000000000
v 0.358479835 -0.297621510 0.075000000
v 0.358479835 -0.297621510 0.000000000
v 0.282316443 -0.406514995 0.075000000
v 0.135987590 -0.248293692 0.075000000
v 0.282316443 -0.406514995 0.000000000
v 0.135987590 -0.248293692 0.000000000
v 0.111478800 -0.301240951 0.075000000
v 0.111478800 -0.301240951 0.000000000
v 0.163650465 -0.476628749 0.075000000
v 0.163650465 -0.476628749 0.000000000
v 0.070527404 -0.332885212 0.075000000
v 0.070527404 -0.332885212 0.000000000
v 0.010341262 -0.500000000 0.075000000
v 0.010341262 -0.500000000 0.000000000
v 0.013029990 -0.343433299 0.075000000
v 0.013029990 -0.343433299 0.000000000
v -0.044157187 -0.332885212 0.075000000
v -0.044157187 -0.332885212 0.000000000
v -0.156463289 -0.468252327 0.075000000
v -0.156463289 -0.468252327 0.000000000
v -0.085005171 -0.301240951 0.075000000
v -0.085005171 -0.301240951 0.000000000
v -0.280868666 -0.373009307 0.075000000
v -0.280868666 -0.373009307 0.000000000
v -0.109513961 -0.248293692 0.075000000
v -0.109513961 -0.248293692 0.000000000
v -0.358117890 -0.219286453 0.075000000
v -0.358117890 -0.219286453 0.000000000
v -0.117683557 -0.174250259 0.075000000
v -0.117683557 -0.174250259 0.000000000
v -0.109513961 -0.100103413 0.075000000
v -0.109513961 -0.100103413 0.000000000
v -0.383867632 -0.012512927 0.075000000
v -0.383867632 -0.012512927 0.000000000
v -0.146639090 0.092140641 0.075000000
v -0.146639090 0.092140641 0.000000000
v 0.293071355 0.068769390 0.075000000
v 0.293071355 0.068769390 0.000000000
v 0.111478800 -0.047259566 0.075000000
v 0.111478800 -0.047259566 0.000000000
v -0.085005171 -0.047259566 0.075000000
v -0.085005171 -0.047259566 0.000000000
v -0.044157187 -0.015460186 0.075000000
v -0.044157187 -0.015460186 0.000000000
v -0.102275078 0.119803516 0.075000000
v -0.102275078 0.119803516 0.000000000
v -0.054395036 0.139503619 0.075000000
v -0.054395036 0.139503619 0.000000000
v 0.013029990 -0.004860393 0.075000000
v 0.013029990 -0.004860393 0.000000000
v -0.002275078 0.151447777 0.075000000
v -0.002275078 0.151447777 0.000000000
v 0.054395036 0.155429162 0.075000000
v 0.054395036 0.155429162 0.000000000
v 0.070527404 -0.015460186 0.075000000
v 0.070527404 -0.015460186 0.000000000
v 0.188004137 0.133764219 0.075000000
v 0.188004137 0.133764219 0.000000000
f 1 2 3
f 4 6 5
f 1 3 7
f 4 8 6
f 1 7 9
f 4 10 8
f 9 7 11
f 10 12 8
f 9 11 13
f 10 14 12
f 13 11 15
f 14 16 12
f 13 15 17
f 14 18 16
f 17 15 19
f 18 20 16
f 17 19 21
f 18 22 20
f 21 19 23
f 22 24 20
f 21 23 25
f 22 26 24
f 25 23 27
f 26 28 24
f 25 27 29
f 26 30 28
f 29 27 31
f 30 32 28
f 33 34 35
f 36 38 37
f 33 35 39
f 36 40 38
f 33 39 41
f 36 42 40
f 43 41 44
f 45 46 42
f 43 44 47
f 45 48 46
f 43 47 49
f 45 50 48
f 49 47 51
f 50 52 48
f 49 51 53
f 50 54 52
f 53 51 55
f 54 56 52
f 53 55 57
f 54 58 56
f 53 57 59
f 54 60 58
f 59 57 61
f 60 62 58
f 59 61 63
f 60 64 62
f 63 61 65
f 64 66 62
f 63 65 67
f 64 68 66
f 67 65 69
f 68 70 66
f 67 69 71
f 68 72 70
f 67 71 73
f 68 74 72
f 73 71 75
f 74 76 72
f 73 75 2
f 74 5 76
f 2 75 3
f 5 6 76
f 34 77 35
f 37 38 78
f 35 77 79
f 38 80 78
f 39 44 41
f 40 42 46
f 71 81 75
f 72 76 82
f 75 81 83
f 76 84 82
f 75 83 85
f 76 86 84
f 85 83 87
f 86 88 84
f 87 83 89
f 88 90 84
f 87 89 91
f 88 92 90
f 91 89 93
f 92 94 90
f 93 89 95
f 94 96 90
f 93 95 97
f 94 98 96
f 97 95 79
f 98 80 96
f 97 79 77
f 98 78 80
f 32 27 28
f 32 31 27
f 28 23 24
f 28 27 23
f 24 19 20
f 24 23 19
f 20 15 16
f 20 19 15
f 16 11 12
f 16 15 11
f 12 7 8
f 12 11 7
f 8 3 6
f 8 7 3
f 6 75 76
f 6 3 75
f 76 85 86
f 76 75 85
f 86 87 88
f 86 85 87
f 88 91 92
f 88 87 91
f 92 93 94
f 92 91 93
f 94 97 98
f 94 93 97
f 98 77 78
f 98 97 77
f 78 34 37
f 78 77 34
f 37 33 36
f 37 34 33
f 36 41 42
f 36 33 41
f 42 43 45
f 42 41 43
f 45 49 50
f 45 43 49
f 50 53 54
f 50 49 53
f 54 59 60
f 54 53 59
f 60 63 64
f 60 59 63
f 64 67 68
f 64 63 67
f 68 73 74
f 68 67 73
f 74 2 5
f 74 73 2
f 5 1 4
f 5 2 1
f 4 9 10
f 4 1 9
f 10 13 14
f 10 9 13
f 14 17 18
f 14 13 17
f 18 21 22
f 18 17 21
f 22 25 26
f 22 21 25
f 26 29 30
f 26 25 29
f 30 31 32
f 30 29 31
f 84 82 81
f 84 81 83
f 82 72 71
f 82 71 81
f 72 70 69
f 72 69 71
f 70 66 65
f 70 65 69
f 66 62 61
f 66 61 65
f 62 58 57
f 62 57 61
f 58 56 55
f 58 55 57
f 56 52 51
f 56 51 55
f 52 48 47
f 52 47 51
f 48 46 44
f 48 44 47
f 46 40 39
f 46 39 44
f 40 38 35
f 40 35 39
f 38 80 79
f 38 79 35
f 80 96 95
f 80 95 79
f 96 90 89
f 96 89 95
f 90 84 83
f 90 83 89
