# UIU Floor Marker G
mtllib FloorMarker_G.mtl
o FloorMarker_G
usemtl ChromeSilver
v -0.148577 0.179821 0.000000
v -0.164278 0.162526 0.000000
v -0.083318 0.108516 0.000000
v -0.074183 0.119863 0.000000
v -0.131000 0.195456 0.000000
v -0.063975 0.130051 0.000000
v -0.090589 0.221272 0.000000
v -0.040477 0.146753 0.000000
v -0.067756 0.231454 0.000000
v -0.027187 0.153267 0.000000
v -0.043348 0.239568 0.000000
v -0.012935 0.158430 0.000000
v 0.009655 0.248841 0.000000
v 0.017940 0.164331 0.000000
v 0.034563 0.165068 0.000000
v 0.038251 0.250000 0.000000
v 0.053609 0.164463 0.000000
v 0.067597 0.248788 0.000000
v 0.070285 0.162645 0.000000
v 0.094942 0.245153 0.000000
v 0.085248 0.159800 0.000000
v 0.120258 0.239357 0.000000
v 0.098946 0.155901 0.000000
v 0.143519 0.231665 0.000000
v 0.111723 0.151185 0.000000
v 0.123709 0.145680 0.000000
v 0.164831 0.222234 0.000000
v 0.135511 0.139410 0.000000
v 0.184299 0.211222 0.000000
v 0.188725 0.140095 0.000000
v 0.202002 0.198841 0.000000
v 0.218019 0.185300 0.000000
v 0.216649 -0.197418 0.000000
v 0.216649 0.004584 0.000000
v 0.124974 -0.070337 0.000000
v 0.124974 -0.152529 0.000000
v 0.197636 -0.210149 0.000000
v 0.157752 -0.230117 0.000000
v 0.136881 -0.237355 0.000000
v 0.106533 -0.160090 0.000000
v 0.115444 -0.242887 0.000000
v 0.087671 -0.165911 0.000000
v 0.070713 -0.249210 0.000000
v 0.067308 -0.169547 0.000000
v 0.044362 -0.170759 0.000000
v 0.047418 -0.250000 0.000000
v 0.017947 -0.248834 0.000000
v 0.026910 -0.170047 0.000000
v -0.005545 -0.164357 0.000000
v -0.036690 -0.239509 0.000000
v -0.020548 -0.159378 0.000000
v -0.061855 -0.231349 0.000000
v -0.034629 -0.152983 0.000000
v -0.085419 -0.221055 0.000000
v -0.059708 -0.136282 0.000000
v -0.127252 -0.194975 0.000000
v -0.070706 -0.125975 0.000000
v -0.145522 -0.179189 0.000000
v -0.080552 -0.114397 0.000000
v -0.161874 -0.161710 0.000000
v -0.096727 -0.087526 0.000000
v -0.188692 -0.122089 0.000000
v -0.103056 -0.072234 0.000000
v -0.199157 -0.099947 0.000000
v -0.108035 -0.055736 0.000000
v -0.207409 -0.076502 0.000000
v -0.113725 -0.019540 0.000000
v -0.216840 -0.026449 0.000000
v -0.114436 0.000158 0.000000
v -0.218019 0.000158 0.000000
v -0.113784 0.018421 0.000000
v -0.216893 0.027088 0.000000
v -0.108568 0.052298 0.000000
v -0.207883 0.077509 0.000000
v -0.200000 0.101001 0.000000
v -0.104004 0.067914 0.000000
v -0.189989 0.123116 0.000000
v -0.098228 0.082541 0.000000
v 0.147524 0.132403 0.000000
v 0.153820 0.129136 0.000000
v 0.185096 0.135241 0.000000
v 0.048788 0.004584 0.000000
v 0.069652 -0.070337 0.000000
v 0.048788 -0.051791 0.000000
v 0.060906 -0.069020 0.000000
v 0.050158 -0.059115 0.000000
v 0.054268 -0.065068 0.000000
v 0.165622 0.126396 0.000000
v 0.176297 0.128655 0.000000
v 0.171128 0.126923 0.000000
v -0.148577 0.179821 0.000303
v -0.164278 0.162526 0.000303
v -0.083318 0.108516 0.000303
v -0.074183 0.119863 0.000303
v -0.131000 0.195456 0.000303
v -0.063975 0.130051 0.000303
v -0.090589 0.221272 0.000303
v -0.040477 0.146753 0.000303
v -0.067756 0.231454 0.000303
v -0.027187 0.153267 0.000303
v -0.043348 0.239568 0.000303
v -0.012935 0.158430 0.000303
v 0.009655 0.248841 0.000303
v 0.017940 0.164331 0.000303
v 0.034563 0.165068 0.000303
v 0.038251 0.250000 0.000303
v 0.053609 0.164463 0.000303
v 0.067597 0.248788 0.000303
v 0.070285 0.162645 0.000303
v 0.094942 0.245153 0.000303
v 0.085248 0.159800 0.000303
v 0.120258 0.239357 0.000303
v 0.098946 0.155901 0.000303
v 0.143519 0.231665 0.000303
v 0.111723 0.151185 0.000303
v 0.123709 0.145680 0.000303
v 0.164831 0.222234 0.000303
v 0.135511 0.139410 0.000303
v 0.184299 0.211222 0.000303
v 0.188725 0.140095 0.000303
v 0.202002 0.198841 0.000303
v 0.218019 0.185300 0.000303
v 0.216649 -0.197418 0.000303
v 0.216649 0.004584 0.000303
v 0.124974 -0.070337 0.000303
v 0.124974 -0.152529 0.000303
v 0.197636 -0.210149 0.000303
v 0.157752 -0.230117 0.000303
v 0.136881 -0.237355 0.000303
v 0.106533 -0.160090 0.000303
v 0.115444 -0.242887 0.000303
v 0.087671 -0.165911 0.000303
v 0.070713 -0.249210 0.000303
v 0.067308 -0.169547 0.000303
v 0.044362 -0.170759 0.000303
v 0.047418 -0.250000 0.000303
v 0.017947 -0.248834 0.000303
v 0.026910 -0.170047 0.000303
v -0.005545 -0.164357 0.000303
v -0.036690 -0.239509 0.000303
v -0.020548 -0.159378 0.000303
v -0.061855 -0.231349 0.000303
v -0.034629 -0.152983 0.000303
v -0.085419 -0.221055 0.000303
v -0.059708 -0.136282 0.000303
v -0.127252 -0.194975 0.000303
v -0.070706 -0.125975 0.000303
v -0.145522 -0.179189 0.000303
v -0.080552 -0.114397 0.000303
v -0.161874 -0.161710 0.000303
v -0.096727 -0.087526 0.000303
v -0.188692 -0.122089 0.000303
v -0.103056 -0.072234 0.000303
v -0.199157 -0.099947 0.000303
v -0.108035 -0.055736 0.000303
v -0.207409 -0.076502 0.000303
v -0.113725 -0.019540 0.000303
v -0.216840 -0.026449 0.000303
v -0.114436 0.000158 0.000303
v -0.218019 0.000158 0.000303
v -0.113784 0.018421 0.000303
v -0.216893 0.027088 0.000303
v -0.108568 0.052298 0.000303
v -0.207883 0.077509 0.000303
v -0.200000 0.101001 0.000303
v -0.104004 0.067914 0.000303
v -0.189989 0.123116 0.000303
v -0.098228 0.082541 0.000303
v 0.147524 0.132403 0.000303
v 0.153820 0.129136 0.000303
v 0.185096 0.135241 0.000303
v 0.048788 0.004584 0.000303
v 0.069652 -0.070337 0.000303
v 0.048788 -0.051791 0.000303
v 0.060906 -0.069020 0.000303
v 0.050158 -0.059115 0.000303
v 0.054268 -0.065068 0.000303
v 0.165622 0.126396 0.000303
v 0.176297 0.128655 0.000303
v 0.171128 0.126923 0.000303
f 1 3 2
f 91 92 93
f 1 4 3
f 91 93 94
f 1 5 4
f 91 94 95
f 5 6 4
f 95 94 96
f 5 7 6
f 95 96 97
f 7 8 6
f 97 96 98
f 7 9 8
f 97 98 99
f 9 10 8
f 99 98 100
f 9 11 10
f 99 100 101
f 11 12 10
f 101 100 102
f 11 13 12
f 101 102 103
f 13 14 12
f 103 102 104
f 13 15 14
f 103 104 105
f 13 16 15
f 103 105 106
f 16 17 15
f 106 105 107
f 16 18 17
f 106 107 108
f 18 19 17
f 108 107 109
f 18 20 19
f 108 109 110
f 20 21 19
f 110 109 111
f 20 22 21
f 110 111 112
f 22 23 21
f 112 111 113
f 22 24 23
f 112 113 114
f 24 25 23
f 114 113 115
f 24 26 25
f 114 115 116
f 24 27 26
f 114 116 117
f 27 28 26
f 117 116 118
f 27 29 28
f 117 118 119
f 29 30 28
f 119 118 120
f 29 31 30
f 119 120 121
f 31 32 30
f 121 120 122
f 33 35 34
f 123 124 125
f 33 36 35
f 123 125 126
f 33 37 36
f 123 126 127
f 37 38 36
f 127 126 128
f 38 39 36
f 128 126 129
f 39 40 36
f 129 126 130
f 39 41 40
f 129 130 131
f 41 42 40
f 131 130 132
f 41 43 42
f 131 132 133
f 43 44 42
f 133 132 134
f 43 45 44
f 133 134 135
f 43 46 45
f 133 135 136
f 46 47 45
f 136 135 137
f 47 48 45
f 137 135 138
f 47 49 48
f 137 138 139
f 47 50 49
f 137 139 140
f 50 51 49
f 140 139 141
f 50 52 51
f 140 141 142
f 52 53 51
f 142 141 143
f 52 54 53
f 142 143 144
f 54 55 53
f 144 143 145
f 54 56 55
f 144 145 146
f 56 57 55
f 146 145 147
f 56 58 57
f 146 147 148
f 58 59 57
f 148 147 149
f 58 60 59
f 148 149 150
f 60 61 59
f 150 149 151
f 60 62 61
f 150 151 152
f 62 63 61
f 152 151 153
f 62 64 63
f 152 153 154
f 64 65 63
f 154 153 155
f 64 66 65
f 154 155 156
f 66 67 65
f 156 155 157
f 66 68 67
f 156 157 158
f 68 69 67
f 158 157 159
f 68 70 69
f 158 159 160
f 70 71 69
f 160 159 161
f 70 72 71
f 160 161 162
f 72 73 71
f 162 161 163
f 72 74 73
f 162 163 164
f 74 75 73
f 164 163 165
f 75 76 73
f 165 163 166
f 75 77 76
f 165 166 167
f 77 78 76
f 167 166 168
f 77 2 78
f 167 168 92
f 2 3 78
f 92 168 93
f 28 30 79
f 118 169 120
f 30 80 79
f 120 169 170
f 30 81 80
f 120 170 171
f 34 35 82
f 124 172 125
f 35 83 82
f 125 172 173
f 82 83 84
f 172 174 173
f 83 85 84
f 173 174 175
f 85 86 84
f 175 174 176
f 85 87 86
f 175 176 177
f 80 81 88
f 170 178 171
f 81 89 88
f 171 178 179
f 89 90 88
f 179 178 180
f 82 34 124
f 82 124 172
f 34 33 123
f 34 123 124
f 33 37 127
f 33 127 123
f 37 38 128
f 37 128 127
f 38 39 129
f 38 129 128
f 39 41 131
f 39 131 129
f 41 43 133
f 41 133 131
f 43 46 136
f 43 136 133
f 46 47 137
f 46 137 136
f 47 50 140
f 47 140 137
f 50 52 142
f 50 142 140
f 52 54 144
f 52 144 142
f 54 56 146
f 54 146 144
f 56 58 148
f 56 148 146
f 58 60 150
f 58 150 148
f 60 62 152
f 60 152 150
f 62 64 154
f 62 154 152
f 64 66 156
f 64 156 154
f 66 68 158
f 66 158 156
f 68 70 160
f 68 160 158
f 70 72 162
f 70 162 160
f 72 74 164
f 72 164 162
f 74 75 165
f 74 165 164
f 75 77 167
f 75 167 165
f 77 2 92
f 77 92 167
f 2 1 91
f 2 91 92
f 1 5 95
f 1 95 91
f 5 7 97
f 5 97 95
f 7 9 99
f 7 99 97
f 9 11 101
f 9 101 99
f 11 13 103
f 11 103 101
f 13 16 106
f 13 106 103
f 16 18 108
f 16 108 106
f 18 20 110
f 18 110 108
f 20 22 112
f 20 112 110
f 22 24 114
f 22 114 112
f 24 27 117
f 24 117 114
f 27 29 119
f 27 119 117
f 29 31 121
f 29 121 119
f 31 32 122
f 31 122 121
f 32 30 120
f 32 120 122
f 30 81 171
f 30 171 120
f 81 89 179
f 81 179 171
f 89 90 180
f 89 180 179
f 90 88 178
f 90 178 180
f 88 80 170
f 88 170 178
f 80 79 169
f 80 169 170
f 79 28 118
f 79 118 169
f 28 26 116
f 28 116 118
f 26 25 115
f 26 115 116
f 25 23 113
f 25 113 115
f 23 21 111
f 23 111 113
f 21 19 109
f 21 109 111
f 19 17 107
f 19 107 109
f 17 15 105
f 17 105 107
f 15 14 104
f 15 104 105
f 14 12 102
f 14 102 104
f 12 10 100
f 12 100 102
f 10 8 98
f 10 98 100
f 8 6 96
f 8 96 98
f 6 4 94
f 6 94 96
f 4 3 93
f 4 93 94
f 3 78 168
f 3 168 93
f 78 76 166
f 78 166 168
f 76 73 163
f 76 163 166
f 73 71 161
f 73 161 163
f 71 69 159
f 71 159 161
f 69 67 157
f 69 157 159
f 67 65 155
f 67 155 157
f 65 63 153
f 65 153 155
f 63 61 151
f 63 151 153
f 61 59 149
f 61 149 151
f 59 57 147
f 59 147 149
f 57 55 145
f 57 145 147
f 55 53 143
f 55 143 145
f 53 51 141
f 53 141 143
f 51 49 139
f 51 139 141
f 49 48 138
f 49 138 139
f 48 45 135
f 48 135 138
f 45 44 134
f 45 134 135
f 44 42 132
f 44 132 134
f 42 40 130
f 42 130 132
f 40 36 126
f 40 126 130
f 36 35 125
f 36 125 126
f 35 83 173
f 35 173 125
f 83 85 175
f 83 175 173
f 85 87 177
f 85 177 175
f 87 86 176
f 87 176 177
f 86 84 174
f 86 174 176
f 84 82 172
f 84 172 174
