# UIU Floor Marker 4
# Generated for Unity. Front faces toward +Z. Height normalized to 1 Unity unit.
o FloorMarker_4
v -0.014466352 0.500000000 0.075000000
v -0.414809258 -0.096870982 0.075000000
v 0.028396914 0.287612516 0.075000000
v -0.014466352 0.500000000 0.000000000
v -0.414809258 -0.096870982 0.000000000
v 0.028396914 0.287612516 0.000000000
v 0.272288898 0.500000000 0.075000000
v 0.272288898 0.500000000 0.000000000
v 0.272288898 -0.130947278 0.075000000
v 0.272288898 -0.130947278 0.000000000
v 0.414809258 -0.130947278 0.075000000
v 0.414809258 -0.317831119 0.075000000
v 0.414809258 -0.130947278 0.000000000
v 0.414809258 -0.317831119 0.000000000
v 0.272288898 -0.500000000 0.075000000
v 0.272288898 -0.317831119 0.075000000
v 0.028396914 -0.317831119 0.075000000
v 0.272288898 -0.500000000 0.000000000
v 0.272288898 -0.317831119 0.000000000
v 0.028396914 -0.317831119 0.000000000
v 0.028396914 -0.500000000 0.075000000
v 0.028396914 -0.500000000 0.000000000
v -0.414809258 -0.317831119 0.075000000
v -0.254072010 -0.130947278 0.075000000
v -0.414809258 -0.317831119 0.000000000
v -0.254072010 -0.130947278 0.000000000
v 0.028396914 -0.130947278 0.075000000
v 0.028396914 -0.130947278 0.000000000
f 1 2 3
f 4 6 5
f 1 3 7
f 4 8 6
f 7 3 9
f 8 10 6
f 11 9 12
f 13 14 10
f 15 16 17
f 18 20 19
f 15 17 21
f 18 22 20
f 23 17 24
f 25 26 20
f 23 24 2
f 25 5 26
f 2 24 3
f 5 6 26
f 3 27 9
f 6 10 28
f 9 27 16
f 10 19 28
f 9 16 12
f 10 14 19
f 16 27 17
f 19 20 28
f 17 27 24
f 20 26 28
f 8 9 10
f 8 7 9
f 10 11 13
f 10 9 11
f 13 12 14
f 13 11 12
f 14 16 19
f 14 12 16
f 19 15 18
f 19 16 15
f 18 21 22
f 18 15 21
f 22 17 20
f 22 21 17
f 20 23 25
f 20 17 23
f 25 2 5
f 25 23 2
f 5 1 4
f 5 2 1
f 4 7 8
f 4 1 7
f 26 28 27
f 26 27 24
f 28 6 3
f 28 3 27
f 6 26 24
f 6 24 3
