# UIU Floor Marker 8
mtllib FloorMarker_8.mtl
o FloorMarker_8
usemtl ChromeSilver
v -0.121918 0.202812 0.000000
v -0.138040 0.181895 0.000000
v -0.056612 0.151897 0.000000
v -0.112118 0.212065 0.000000
v -0.049737 0.161486 0.000000
v -0.101245 0.220443 0.000000
v -0.040727 0.169547 0.000000
v -0.076535 0.234352 0.000000
v -0.062698 0.239884 0.000000
v -0.029505 0.175817 0.000000
v -0.048031 0.244310 0.000000
v -0.015964 0.179926 0.000000
v -0.016682 0.249368 0.000000
v 0.000000 0.181296 0.000000
v 0.000000 0.250000 0.000000
v 0.016682 0.249368 0.000000
v 0.015964 0.179926 0.000000
v 0.048031 0.244310 0.000000
v 0.029505 0.175817 0.000000
v 0.062698 0.239884 0.000000
v 0.040727 0.169547 0.000000
v 0.076535 0.234352 0.000000
v 0.101245 0.220443 0.000000
v 0.049737 0.161486 0.000000
v 0.112118 0.212065 0.000000
v 0.056586 0.151897 0.000000
v 0.121911 0.202812 0.000000
v 0.137981 0.181895 0.000000
v 0.061328 0.140832 0.000000
v 0.144257 0.170232 0.000000
v 0.149282 0.157949 0.000000
v 0.064173 0.128767 0.000000
v 0.155025 0.131764 0.000000
v 0.065121 0.116175 0.000000
v 0.155743 0.117861 0.000000
v 0.170706 -0.085893 0.000000
v 0.160590 -0.050066 0.000000
v 0.075013 -0.087171 0.000000
v 0.076185 -0.104373 0.000000
v 0.171970 -0.106059 0.000000
v 0.171187 -0.122017 0.000000
v 0.135030 -0.200929 0.000000
v 0.152575 -0.178220 0.000000
v 0.065595 -0.146575 0.000000
v 0.124341 -0.210801 0.000000
v 0.057323 -0.157482 0.000000
v 0.112493 -0.219606 0.000000
v 0.085360 -0.234095 0.000000
v 0.046628 -0.166359 0.000000
v 0.070074 -0.239779 0.000000
v 0.033509 -0.173182 0.000000
v 0.053840 -0.244251 0.000000
v 0.017966 -0.177450 0.000000
v 0.018803 -0.249361 0.000000
v 0.000000 -0.178872 0.000000
v 0.000000 -0.250000 0.000000
v -0.018809 -0.249361 0.000000
v -0.017966 -0.177450 0.000000
v -0.053899 -0.244251 0.000000
v -0.033509 -0.173182 0.000000
v -0.070179 -0.239779 0.000000
v -0.046628 -0.166359 0.000000
v -0.085425 -0.234095 0.000000
v -0.057323 -0.157482 0.000000
v -0.112559 -0.219606 0.000000
v -0.124447 -0.210801 0.000000
v -0.065622 -0.146575 0.000000
v -0.135096 -0.200929 0.000000
v -0.152641 -0.178220 0.000000
v -0.071549 -0.133878 0.000000
v -0.159536 -0.165385 0.000000
v -0.164976 -0.151679 0.000000
v -0.075026 -0.119652 0.000000
v -0.171193 -0.122017 0.000000
v -0.076185 -0.104373 0.000000
v -0.171970 -0.106059 0.000000
v -0.170706 -0.085893 0.000000
v -0.075020 -0.087171 0.000000
v -0.160590 -0.050066 0.000000
v -0.155032 0.131764 0.000000
v -0.155743 0.117861 0.000000
v -0.065121 0.116175 0.000000
v -0.064199 0.128767 0.000000
v -0.149341 0.157949 0.000000
v -0.061433 0.140832 0.000000
v -0.144362 0.170232 0.000000
v 0.064357 0.102555 0.000000
v 0.154676 0.099644 0.000000
v 0.146141 0.067084 0.000000
v 0.151739 -0.034405 0.000000
v 0.065635 -0.058930 0.000000
v 0.075000 -0.119652 0.000000
v 0.164917 -0.151679 0.000000
v 0.071444 -0.133878 0.000000
v 0.159431 -0.165385 0.000000
v -0.065694 -0.058930 0.000000
v -0.151739 -0.034405 0.000000
v -0.154683 0.099644 0.000000
v -0.146200 0.067084 0.000000
v -0.064357 0.102555 0.000000
v 0.062065 0.089305 0.000000
v 0.138672 0.052740 0.000000
v 0.146302 -0.027183 0.000000
v 0.133157 -0.014143 0.000000
v 0.107758 0.001910 0.000000
v 0.057429 -0.047893 0.000000
v 0.018131 -0.029024 0.000000
v 0.040610 -0.035628 0.000000
v 0.024974 0.047372 0.000000
v 0.009168 0.044369 0.000000
v 0.000000 -0.027766 0.000000
v 0.000000 0.043994 0.000000
v -0.009174 0.044369 0.000000
v -0.018138 -0.029024 0.000000
v -0.025033 0.047372 0.000000
v -0.040651 -0.035628 0.000000
v -0.057534 -0.047893 0.000000
v -0.107758 0.001910 0.000000
v -0.133157 -0.014143 0.000000
v -0.146302 -0.027183 0.000000
v -0.138778 0.052740 0.000000
v -0.062065 0.089305 0.000000
v -0.031718 0.050000 0.000000
v -0.087039 0.010274 0.000000
v -0.052532 -0.043175 0.000000
v -0.129143 0.039851 0.000000
v -0.057929 0.077055 0.000000
v -0.103273 0.018618 0.000000
v -0.051633 0.066228 0.000000
v -0.042914 0.057113 0.000000
v 0.057903 0.077055 0.000000
v 0.129083 0.039851 0.000000
v 0.087039 0.010274 0.000000
v 0.052452 -0.043175 0.000000
v 0.031612 0.050000 0.000000
v 0.051528 0.066228 0.000000
v 0.103267 0.018618 0.000000
v 0.042861 0.057113 0.000000
v -0.121918 0.202812 0.000303
v -0.138040 0.181895 0.000303
v -0.056612 0.151897 0.000303
v -0.112118 0.212065 0.000303
v -0.049737 0.161486 0.000303
v -0.101245 0.220443 0.000303
v -0.040727 0.169547 0.000303
v -0.076535 0.234352 0.000303
v -0.062698 0.239884 0.000303
v -0.029505 0.175817 0.000303
v -0.048031 0.244310 0.000303
v -0.015964 0.179926 0.000303
v -0.016682 0.249368 0.000303
v 0.000000 0.181296 0.000303
v 0.000000 0.250000 0.000303
v 0.016682 0.249368 0.000303
v 0.015964 0.179926 0.000303
v 0.048031 0.244310 0.000303
v 0.029505 0.175817 0.000303
v 0.062698 0.239884 0.000303
v 0.040727 0.169547 0.000303
v 0.076535 0.234352 0.000303
v 0.101245 0.220443 0.000303
v 0.049737 0.161486 0.000303
v 0.112118 0.212065 0.000303
v 0.056586 0.151897 0.000303
v 0.121911 0.202812 0.000303
v 0.137981 0.181895 0.000303
v 0.061328 0.140832 0.000303
v 0.144257 0.170232 0.000303
v 0.149282 0.157949 0.000303
v 0.064173 0.128767 0.000303
v 0.155025 0.131764 0.000303
v 0.065121 0.116175 0.000303
v 0.155743 0.117861 0.000303
v 0.170706 -0.085893 0.000303
v 0.160590 -0.050066 0.000303
v 0.075013 -0.087171 0.000303
v 0.076185 -0.104373 0.000303
v 0.171970 -0.106059 0.000303
v 0.171187 -0.122017 0.000303
v 0.135030 -0.200929 0.000303
v 0.152575 -0.178220 0.000303
v 0.065595 -0.146575 0.000303
v 0.124341 -0.210801 0.000303
v 0.057323 -0.157482 0.000303
v 0.112493 -0.219606 0.000303
v 0.085360 -0.234095 0.000303
v 0.046628 -0.166359 0.000303
v 0.070074 -0.239779 0.000303
v 0.033509 -0.173182 0.000303
v 0.053840 -0.244251 0.000303
v 0.017966 -0.177450 0.000303
v 0.018803 -0.249361 0.000303
v 0.000000 -0.178872 0.000303
v 0.000000 -0.250000 0.000303
v -0.018809 -0.249361 0.000303
v -0.017966 -0.177450 0.000303
v -0.053899 -0.244251 0.000303
v -0.033509 -0.173182 0.000303
v -0.070179 -0.239779 0.000303
v -0.046628 -0.166359 0.000303
v -0.085425 -0.234095 0.000303
v -0.057323 -0.157482 0.000303
v -0.112559 -0.219606 0.000303
v -0.124447 -0.210801 0.000303
v -0.065622 -0.146575 0.000303
v -0.135096 -0.200929 0.000303
v -0.152641 -0.178220 0.000303
v -0.071549 -0.133878 0.000303
v -0.159536 -0.165385 0.000303
v -0.164976 -0.151679 0.000303
v -0.075026 -0.119652 0.000303
v -0.171193 -0.122017 0.000303
v -0.076185 -0.104373 0.000303
v -0.171970 -0.106059 0.000303
v -0.170706 -0.085893 0.000303
v -0.075020 -0.087171 0.000303
v -0.160590 -0.050066 0.000303
v -0.155032 0.131764 0.000303
v -0.155743 0.117861 0.000303
v -0.065121 0.116175 0.000303
v -0.064199 0.128767 0.000303
v -0.149341 0.157949 0.000303
v -0.061433 0.140832 0.000303
v -0.144362 0.170232 0.000303
v 0.064357 0.102555 0.000303
v 0.154676 0.099644 0.000303
v 0.146141 0.067084 0.000303
v 0.151739 -0.034405 0.000303
v 0.065635 -0.058930 0.000303
v 0.075000 -0.119652 0.000303
v 0.164917 -0.151679 0.000303
v 0.071444 -0.133878 0.000303
v 0.159431 -0.165385 0.000303
v -0.065694 -0.058930 0.000303
v -0.151739 -0.034405 0.000303
v -0.154683 0.099644 0.000303
v -0.146200 0.067084 0.000303
v -0.064357 0.102555 0.000303
v 0.062065 0.089305 0.000303
v 0.138672 0.052740 0.000303
v 0.146302 -0.027183 0.000303
v 0.133157 -0.014143 0.000303
v 0.107758 0.001910 0.000303
v 0.057429 -0.047893 0.000303
v 0.018131 -0.029024 0.000303
v 0.040610 -0.035628 0.000303
v 0.024974 0.047372 0.000303
v 0.009168 0.044369 0.000303
v 0.000000 -0.027766 0.000303
v 0.000000 0.043994 0.000303
v -0.009174 0.044369 0.000303
v -0.018138 -0.029024 0.000303
v -0.025033 0.047372 0.000303
v -0.040651 -0.035628 0.000303
v -0.057534 -0.047893 0.000303
v -0.107758 0.001910 0.000303
v -0.133157 -0.014143 0.000303
v -0.146302 -0.027183 0.000303
v -0.138778 0.052740 0.000303
v -0.062065 0.089305 0.000303
v -0.031718 0.050000 0.000303
v -0.087039 0.010274 0.000303
v -0.052532 -0.043175 0.000303
v -0.129143 0.039851 0.000303
v -0.057929 0.077055 0.000303
v -0.103273 0.018618 0.000303
v -0.051633 0.066228 0.000303
v -0.042914 0.057113 0.000303
v 0.057903 0.077055 0.000303
v 0.129083 0.039851 0.000303
v 0.087039 0.010274 0.000303
v 0.052452 -0.043175 0.000303
v 0.031612 0.050000 0.000303
v 0.051528 0.066228 0.000303
v 0.103267 0.018618 0.000303
v 0.042861 0.057113 0.000303
f 1 3 2
f 139 140 141
f 1 4 3
f 139 141 142
f 4 5 3
f 142 141 143
f 4 6 5
f 142 143 144
f 6 7 5
f 144 143 145
f 6 8 7
f 144 145 146
f 8 9 7
f 146 145 147
f 9 10 7
f 147 145 148
f 9 11 10
f 147 148 149
f 11 12 10
f 149 148 150
f 11 13 12
f 149 150 151
f 13 14 12
f 151 150 152
f 13 15 14
f 151 152 153
f 15 16 14
f 153 152 154
f 16 17 14
f 154 152 155
f 16 18 17
f 154 155 156
f 18 19 17
f 156 155 157
f 18 20 19
f 156 157 158
f 20 21 19
f 158 157 159
f 20 22 21
f 158 159 160
f 22 23 21
f 160 159 161
f 23 24 21
f 161 159 162
f 23 25 24
f 161 162 163
f 25 26 24
f 163 162 164
f 25 27 26
f 163 164 165
f 27 28 26
f 165 164 166
f 28 29 26
f 166 164 167
f 28 30 29
f 166 167 168
f 30 31 29
f 168 167 169
f 31 32 29
f 169 167 170
f 31 33 32
f 169 170 171
f 33 34 32
f 171 170 172
f 33 35 34
f 171 172 173
f 36 38 37
f 174 175 176
f 36 39 38
f 174 176 177
f 36 40 39
f 174 177 178
f 40 41 39
f 178 177 179
f 42 44 43
f 180 181 182
f 42 45 44
f 180 182 183
f 45 46 44
f 183 182 184
f 45 47 46
f 183 184 185
f 47 48 46
f 185 184 186
f 48 49 46
f 186 184 187
f 48 50 49
f 186 187 188
f 50 51 49
f 188 187 189
f 50 52 51
f 188 189 190
f 52 53 51
f 190 189 191
f 52 54 53
f 190 191 192
f 54 55 53
f 192 191 193
f 54 56 55
f 192 193 194
f 56 57 55
f 194 193 195
f 57 58 55
f 195 193 196
f 57 59 58
f 195 196 197
f 59 60 58
f 197 196 198
f 59 61 60
f 197 198 199
f 61 62 60
f 199 198 200
f 61 63 62
f 199 200 201
f 63 64 62
f 201 200 202
f 63 65 64
f 201 202 203
f 65 66 64
f 203 202 204
f 66 67 64
f 204 202 205
f 66 68 67
f 204 205 206
f 68 69 67
f 206 205 207
f 69 70 67
f 207 205 208
f 69 71 70
f 207 208 209
f 71 72 70
f 209 208 210
f 72 73 70
f 210 208 211
f 72 74 73
f 210 211 212
f 74 75 73
f 212 211 213
f 74 76 75
f 212 213 214
f 76 77 75
f 214 213 215
f 77 78 75
f 215 213 216
f 77 79 78
f 215 216 217
f 80 82 81
f 218 219 220
f 80 83 82
f 218 220 221
f 80 84 83
f 218 221 222
f 84 85 83
f 222 221 223
f 84 86 85
f 222 223 224
f 86 2 85
f 224 223 140
f 2 3 85
f 140 223 141
f 34 88 87
f 172 225 226
f 34 35 88
f 172 226 173
f 88 89 87
f 226 225 227
f 37 38 90
f 175 228 176
f 38 91 90
f 176 228 229
f 39 41 92
f 177 230 179
f 41 93 92
f 179 230 231
f 93 94 92
f 231 230 232
f 93 95 94
f 231 232 233
f 95 43 94
f 233 232 181
f 43 44 94
f 181 232 182
f 78 97 96
f 216 234 235
f 78 79 97
f 216 235 217
f 98 100 99
f 236 237 238
f 98 82 100
f 236 238 220
f 98 81 82
f 236 220 219
f 87 89 101
f 225 239 227
f 89 102 101
f 227 239 240
f 90 91 103
f 228 241 229
f 91 104 103
f 229 241 242
f 91 105 104
f 229 242 243
f 91 106 105
f 229 243 244
f 107 109 108
f 245 246 247
f 107 110 109
f 245 247 248
f 107 111 110
f 245 248 249
f 111 112 110
f 249 248 250
f 111 113 112
f 249 250 251
f 111 114 113
f 249 251 252
f 114 115 113
f 252 251 253
f 114 116 115
f 252 253 254
f 96 118 117
f 234 255 256
f 96 119 118
f 234 256 257
f 96 120 119
f 234 257 258
f 96 97 120
f 234 258 235
f 99 122 121
f 237 259 260
f 99 100 122
f 237 260 238
f 115 124 123
f 253 261 262
f 115 116 124
f 253 262 254
f 116 125 124
f 254 262 263
f 117 124 125
f 255 263 262
f 117 118 124
f 255 262 256
f 121 122 126
f 259 264 260
f 122 127 126
f 260 264 265
f 127 128 126
f 265 264 266
f 127 129 128
f 265 266 267
f 130 124 129
f 268 267 262
f 130 123 124
f 268 262 261
f 124 128 129
f 262 267 266
f 101 132 131
f 239 269 270
f 101 102 132
f 239 270 240
f 105 106 133
f 243 271 244
f 106 134 133
f 244 271 272
f 108 133 134
f 246 272 271
f 108 109 133
f 246 271 247
f 109 135 133
f 247 271 273
f 131 137 136
f 269 274 275
f 131 132 137
f 269 275 270
f 137 133 136
f 275 274 271
f 133 138 136
f 271 274 276
f 133 135 138
f 271 276 273
f 105 104 242
f 105 242 243
f 104 103 241
f 104 241 242
f 103 90 228
f 103 228 241
f 90 37 175
f 90 175 228
f 37 36 174
f 37 174 175
f 36 40 178
f 36 178 174
f 40 41 179
f 40 179 178
f 41 93 231
f 41 231 179
f 93 95 233
f 93 233 231
f 95 43 181
f 95 181 233
f 43 42 180
f 43 180 181
f 42 45 183
f 42 183 180
f 45 47 185
f 45 185 183
f 47 48 186
f 47 186 185
f 48 50 188
f 48 188 186
f 50 52 190
f 50 190 188
f 52 54 192
f 52 192 190
f 54 56 194
f 54 194 192
f 56 57 195
f 56 195 194
f 57 59 197
f 57 197 195
f 59 61 199
f 59 199 197
f 61 63 201
f 61 201 199
f 63 65 203
f 63 203 201
f 65 66 204
f 65 204 203
f 66 68 206
f 66 206 204
f 68 69 207
f 68 207 206
f 69 71 209
f 69 209 207
f 71 72 210
f 71 210 209
f 72 74 212
f 72 212 210
f 74 76 214
f 74 214 212
f 76 77 215
f 76 215 214
f 77 79 217
f 77 217 215
f 79 97 235
f 79 235 217
f 97 120 258
f 97 258 235
f 120 119 257
f 120 257 258
f 119 118 256
f 119 256 257
f 118 124 262
f 118 262 256
f 124 128 266
f 124 266 262
f 128 126 264
f 128 264 266
f 126 121 259
f 126 259 264
f 121 99 237
f 121 237 259
f 99 98 236
f 99 236 237
f 98 81 219
f 98 219 236
f 81 80 218
f 81 218 219
f 80 84 222
f 80 222 218
f 84 86 224
f 84 224 222
f 86 2 140
f 86 140 224
f 2 1 139
f 2 139 140
f 1 4 142
f 1 142 139
f 4 6 144
f 4 144 142
f 6 8 146
f 6 146 144
f 8 9 147
f 8 147 146
f 9 11 149
f 9 149 147
f 11 13 151
f 11 151 149
f 13 15 153
f 13 153 151
f 15 16 154
f 15 154 153
f 16 18 156
f 16 156 154
f 18 20 158
f 18 158 156
f 20 22 160
f 20 160 158
f 22 23 161
f 22 161 160
f 23 25 163
f 23 163 161
f 25 27 165
f 25 165 163
f 27 28 166
f 27 166 165
f 28 30 168
f 28 168 166
f 30 31 169
f 30 169 168
f 31 33 171
f 31 171 169
f 33 35 173
f 33 173 171
f 35 88 226
f 35 226 173
f 88 89 227
f 88 227 226
f 89 102 240
f 89 240 227
f 102 132 270
f 102 270 240
f 132 137 275
f 132 275 270
f 137 133 271
f 137 271 275
f 133 105 243
f 133 243 271
f 53 51 189
f 53 189 191
f 51 49 187
f 51 187 189
f 49 46 184
f 49 184 187
f 46 44 182
f 46 182 184
f 44 94 232
f 44 232 182
f 94 92 230
f 94 230 232
f 92 39 177
f 92 177 230
f 39 38 176
f 39 176 177
f 38 91 229
f 38 229 176
f 91 106 244
f 91 244 229
f 106 134 272
f 106 272 244
f 134 108 246
f 134 246 272
f 108 107 245
f 108 245 246
f 107 111 249
f 107 249 245
f 111 114 252
f 111 252 249
f 114 116 254
f 114 254 252
f 116 125 263
f 116 263 254
f 125 117 255
f 125 255 263
f 117 96 234
f 117 234 255
f 96 78 216
f 96 216 234
f 78 75 213
f 78 213 216
f 75 73 211
f 75 211 213
f 73 70 208
f 73 208 211
f 70 67 205
f 70 205 208
f 67 64 202
f 67 202 205
f 64 62 200
f 64 200 202
f 62 60 198
f 62 198 200
f 60 58 196
f 60 196 198
f 58 55 193
f 58 193 196
f 55 53 191
f 55 191 193
f 12 10 148
f 12 148 150
f 10 7 145
f 10 145 148
f 7 5 143
f 7 143 145
f 5 3 141
f 5 141 143
f 3 85 223
f 3 223 141
f 85 83 221
f 85 221 223
f 83 82 220
f 83 220 221
f 82 100 238
f 82 238 220
f 100 122 260
f 100 260 238
f 122 127 265
f 122 265 260
f 127 129 267
f 127 267 265
f 129 130 268
f 129 268 267
f 130 123 261
f 130 261 268
f 123 115 253
f 123 253 261
f 115 113 251
f 115 251 253
f 113 112 250
f 113 250 251
f 112 110 248
f 112 248 250
f 110 109 247
f 110 247 248
f 109 135 273
f 109 273 247
f 135 138 276
f 135 276 273
f 138 136 274
f 138 274 276
f 136 131 269
f 136 269 274
f 131 101 239
f 131 239 269
f 101 87 225
f 101 225 239
f 87 34 172
f 87 172 225
f 34 32 170
f 34 170 172
f 32 29 167
f 32 167 170
f 29 26 164
f 29 164 167
f 26 24 162
f 26 162 164
f 24 21 159
f 24 159 162
f 21 19 157
f 21 157 159
f 19 17 155
f 19 155 157
f 17 14 152
f 17 152 155
f 14 12 150
f 14 150 152
